<svg width="424" height="512" viewBox="0 0 424 512" fill="none" xmlns="http://www.w3.org/2000/svg">
<path d="M438 384H374V288C373.974 264.669 364.694 242.301 348.196 225.804C331.699 209.306 309.331 200.026 286 200H205.561C207.853 194.103 208.546 187.706 207.57 181.455C206.593 175.205 203.982 169.323 200 164.407V159C200 129.296 188.2 100.808 167.196 79.804C146.192 58.8 117.704 47 88 47C58.2958 47 29.8081 58.8 8.80404 79.804C-12.2 100.808 -24 129.296 -24 159V199C-24.0398 221.124 -17.5114 242.761 -5.24211 261.171C7.02723 279.581 24.4853 293.935 44.92 302.413C45.277 302.562 45.641 302.693 46 302.838V357.309L6.463 409.416C-0.813619 412.628 -6.99981 417.886 -11.3429 424.55C-15.686 431.214 -17.9989 438.996 -18 446.95V456C-18 458.122 -17.1571 460.157 -15.6569 461.657C-14.1566 463.157 -12.1217 464 -10 464H46C47.1848 464 48.3548 463.737 49.4255 463.229C50.4961 462.722 51.4407 461.983 52.191 461.066L124.191 373.066C125.361 371.637 126 369.847 126 368V363.5C130.301 366.371 134.781 368.965 139.413 371.264L110.462 409.423C103.2 412.653 97.0266 417.915 92.6864 424.573C88.3462 431.232 86.0241 439.004 86 446.952V456C86 458.122 86.8429 460.157 88.3431 461.657C89.8434 463.157 91.8783 464 94 464H150C151.2 464 152.384 463.731 153.465 463.212C154.547 462.692 155.497 461.936 156.247 461L217.847 384H229.163L226.342 412.234C225.589 419.748 226.655 427.333 229.45 434.349C232.245 441.365 236.687 447.605 242.401 452.543C248.115 457.481 254.933 460.971 262.279 462.72C269.626 464.469 277.285 464.425 284.611 462.591L303.804 457.791C309.606 460.995 315.99 463.009 322.581 463.713C329.172 464.417 335.837 463.797 342.185 461.891L377.3 451.364L378.708 453.477C380.647 456.386 383.208 458.829 386.206 460.629C389.204 462.429 392.563 463.541 396.043 463.885C399.523 464.23 403.035 463.798 406.327 462.62C409.62 461.443 412.61 459.55 415.082 457.077C416.325 455.832 417.427 454.453 418.367 452.965L418.708 453.476C421.522 457.694 425.619 460.895 430.392 462.606C435.166 464.317 440.363 464.448 445.216 462.978C450.069 461.509 454.321 458.517 457.343 454.445C460.366 450.374 461.998 445.438 462 440.367V408C461.993 401.637 459.462 395.537 454.962 391.038C450.463 386.538 444.363 384.007 438 384V384ZM358 288V300.261C351.101 294.072 342.556 290.014 333.399 288.579C324.242 287.143 314.866 288.391 306.403 292.171C297.941 295.952 290.754 302.103 285.714 309.881C280.673 317.659 277.994 326.731 278 336V368H262V216H286C305.089 216.021 323.39 223.614 336.888 237.112C350.386 250.61 357.979 268.911 358 288V288ZM-8 199V159C-7.99045 134.065 1.72041 110.113 19.0775 92.2109C36.4346 74.3093 60.076 63.8633 84.9985 63.0837C109.921 62.3041 134.169 71.252 152.611 88.0339C171.053 104.816 182.242 128.115 183.81 153C180.013 151.675 176.021 150.999 172 151H168V167H172C177.304 167 182.391 169.107 186.142 172.858C189.893 176.609 192 181.696 192 187C192 192.304 189.893 197.391 186.142 201.142C182.391 204.893 177.304 207 172 207H168V223H172C175.124 223 178.234 222.593 181.252 221.789C175.884 243.751 162.938 263.114 144.695 276.468C126.452 289.822 104.081 296.31 81.524 294.789C81.396 294.774 81.267 294.761 81.136 294.753C56.9147 293.047 34.2428 282.215 17.6984 264.442C1.15396 246.67 -8.03034 223.281 -8 199V199ZM42.209 448H-2V446.95C-1.99922 441.846 -0.438212 436.865 2.47374 432.674C5.38569 428.482 9.50939 425.281 14.292 423.5C15.7183 422.972 16.9641 422.047 17.883 420.835L60.373 364.835C61.4284 363.444 61.9998 361.746 62 360V307.964C67.7849 309.337 73.6703 310.246 79.6 310.681C79.739 310.698 79.881 310.711 80.022 310.721C80.451 310.751 80.879 310.763 81.308 310.788L86.563 320.421C92.721 331.708 100.632 341.946 110 350.753V365.144L42.209 448ZM206 373.194L146.155 448H102V446.952C102.015 441.85 103.582 436.874 106.494 432.685C109.406 428.496 113.523 425.292 118.3 423.5C119.724 422.97 120.967 422.046 121.885 420.836L164.372 364.836C165.428 363.445 166 361.746 166 360V320H150V357.309L149.3 358.237C128.599 348.715 111.524 332.765 100.616 312.759L99.338 310.416C101.013 310.246 102.678 310.052 104.318 309.807C128.014 306.32 149.967 295.328 166.955 278.444C183.942 261.56 195.068 239.674 198.7 216H246V368H222V320H206V373.194ZM280.718 447.072C275.882 448.28 270.827 448.307 265.978 447.151C261.13 445.995 256.631 443.69 252.86 440.43C249.089 437.17 246.158 433.051 244.313 428.421C242.468 423.791 241.764 418.785 242.26 413.825L245.24 384H278V414.143C277.992 425.371 281.794 436.269 288.784 445.056L280.718 447.072ZM398.37 448C396.698 447.998 395.072 447.446 393.745 446.429L405.568 442.882C405.048 444.377 404.075 445.673 402.785 446.59C401.495 447.507 399.951 448 398.368 448H398.37ZM446 440.367C446 442.005 445.473 443.6 444.497 444.916C443.52 446.231 442.147 447.198 440.579 447.672C439.011 448.147 437.332 448.105 435.79 447.552C434.248 446.999 432.925 445.964 432.016 444.601L420.656 427.562C419.706 426.136 418.322 425.053 416.71 424.473C415.098 423.892 413.342 423.845 411.701 424.337L337.585 446.572C332.53 448.089 327.19 448.402 321.991 447.488C316.793 446.574 311.881 444.457 307.646 441.306C303.412 438.156 299.972 434.059 297.603 429.342C295.234 424.626 294 419.421 294 414.143V336C294 327.513 297.371 319.374 303.373 313.373C309.374 307.371 317.513 304 326 304C334.487 304 342.626 307.371 348.627 313.373C354.629 319.374 358 327.513 358 336V392C358 394.122 358.843 396.157 360.343 397.657C361.843 399.157 363.878 400 366 400H438C440.121 400.002 442.154 400.846 443.654 402.346C445.154 403.846 445.998 405.879 446 408V440.367Z" fill="black"/>
<path d="M24 215C32.8366 215 40 207.837 40 199C40 190.163 32.8366 183 24 183C15.1634 183 8 190.163 8 199C8 207.837 15.1634 215 24 215Z" fill="black"/>
<path d="M120 215C128.837 215 136 207.837 136 199C136 190.163 128.837 183 120 183C111.163 183 104 190.163 104 199C104 207.837 111.163 215 120 215Z" fill="black"/>
<path d="M72 255C78.363 254.993 84.4633 252.462 88.9627 247.963C93.462 243.463 95.9929 237.363 96 231H80C80 233.122 79.1571 235.157 77.6569 236.657C76.1566 238.157 74.1217 239 72 239C69.8783 239 67.8434 238.157 66.3431 236.657C64.8429 235.157 64 233.122 64 231H48C48.0071 237.363 50.538 243.463 55.0373 247.963C59.5367 252.462 65.637 254.993 72 255V255Z" fill="black"/>
</svg>
