<svg id="Capa_1" enable-background="new 0 0 512.014 512.014" viewBox="0 0 512.014 512.014" xmlns="http://www.w3.org/2000/svg"><g>
<path d="m162.554 86.993h212.198c4.143 0 7.5-3.357 7.5-7.5s-3.357-7.5-7.5-7.5h-212.198c-8.834 0-16.021 7.187-16.021 16.021v52.517c0 8.834 7.187 16.021 16.021 16.021h212.198c4.143 0 7.5-3.357 7.5-7.5s-3.357-7.5-7.5-7.5h-212.198c-.563 0-1.021-.458-1.021-1.021v-52.517c.001-.563.459-1.021 1.021-1.021z"/><path d="m157.495 200.686h18.205c4.142 0 7.5-3.357 7.5-7.5s-3.358-7.5-7.5-7.5h-18.205c-4.142 0-7.5 3.357-7.5 7.5s3.358 7.5 7.5 7.5z"/><path d="m341.865 185.686h-124.24c-4.142 0-7.5 3.357-7.5 7.5s3.358 7.5 7.5 7.5h124.241c4.143 0 7.5-3.357 7.5-7.5s-3.358-7.5-7.501-7.5z"/><path d="m157.495 251.428h184.37c4.143 0 7.5-3.357 7.5-7.5s-3.357-7.5-7.5-7.5h-184.37c-4.142 0-7.5 3.357-7.5 7.5s3.358 7.5 7.5 7.5z"/><path d="m157.495 303.694h184.37c4.143 0 7.5-3.357 7.5-7.5s-3.357-7.5-7.5-7.5h-184.37c-4.142 0-7.5 3.357-7.5 7.5s3.358 7.5 7.5 7.5z"/><path d="m157.495 355.96h184.37c4.143 0 7.5-3.357 7.5-7.5s-3.357-7.5-7.5-7.5h-184.37c-4.142 0-7.5 3.357-7.5 7.5s3.358 7.5 7.5 7.5z"/><path d="m157.495 408.227h220.736c4.143 0 7.5-3.357 7.5-7.5s-3.357-7.5-7.5-7.5h-220.736c-4.142 0-7.5 3.357-7.5 7.5s3.358 7.5 7.5 7.5z"/><path d="m500.579 148.473-2.908-37.638c-.693-8.982-5.593-16.774-12.654-21.504v-14.967c0-12.405-8.412-22.876-19.83-26.025-.285-26.702-22.084-48.339-48.852-48.339h-359.703c-.093 0-.183.011-.274.014-.226.001-.45-.009-.676-.005-26.421.506-47.916 22.422-47.916 48.856v16.025c0 5.207 4.236 9.443 9.443 9.443h73.289v124.168c0 4.143 3.358 7.5 7.5 7.5s7.5-3.357 7.5-7.5v-148.818c0-12.843-5.112-25.395-14.049-34.683h324.886c18.559 0 33.673 15.008 33.857 33.526-11.083 3.363-19.173 13.671-19.173 25.838v14.966c-7.062 4.73-11.961 12.522-12.654 21.503l-2.634 34.083-21.302 14.759c-9.425 6.53-15.052 17.274-15.052 28.74v100.166l-7.8 14.999c-1.911 3.675-.48 8.203 3.194 10.114 1.105.575 2.288.848 3.454.848 2.708 0 5.324-1.473 6.66-4.042l8.646-16.626c.556-1.068.846-2.255.846-3.46v-101.997c0-6.547 3.213-12.682 8.595-16.41l11.389-7.891c-3.548 55.099-3.42 110.803.414 165.823.287 4.132 3.854 7.249 8.003 6.96 4.132-.287 7.248-3.87 6.96-8.003-1.541-22.12-2.475-44.352-2.808-66.609h62.17c-.711 47.042-4.144 94.049-10.252 140.642h-41.672c-1.838-14.024-3.462-28.204-4.81-42.265-.396-4.123-4.063-7.144-8.182-6.75-4.123.396-7.146 4.059-6.75 8.182 1.575 16.428 3.504 33.03 5.732 49.348l5.843 42.784c.649 4.76 3.029 8.934 6.445 11.922.103.493.257.982.466 1.462l15.22 34.964c1.191 2.737 3.893 4.507 6.877 4.507s5.686-1.77 6.877-4.507l15.22-34.964c.209-.479.363-.969.466-1.462 3.417-2.988 5.796-7.162 6.445-11.922l5.843-42.784c11.878-86.975 14.472-175.451 7.711-262.971zm-410.081-89.139h-67.732v-10.469c0-18.319 14.895-33.509 33.203-33.858 8.901-.204 17.45 3.268 23.989 9.682 6.699 6.572 10.541 15.683 10.541 24.994v9.651zm339.913 90.295.47-6.08h54.273l.47 6.08c1.561 20.209 2.596 40.471 3.149 60.752h-61.516c.553-20.306 1.596-40.579 3.154-60.752zm2.909-37.64c.541-7.001 6.465-12.484 13.486-12.484h22.424c7.021 0 12.945 5.483 13.486 12.485l1.279 16.559h-51.955zm12.699-27.484v-10.141c0-6.616 5.383-11.999 11.999-11.999s11.999 5.383 11.999 11.999v10.141h-.787-22.424zm-19.215 162.782c-.02-7.303.023-14.605.133-21.906h62.149c.109 7.301.177 14.604.156 21.906zm45.36 204.911c-.292 2.139-2.141 3.751-4.299 3.751h-19.695c-2.158 0-4.007-1.612-4.299-3.751l-4.68-34.27h37.653zm-18.43 18.751h8.568l-4.284 9.842z"/><path d="m419.984 497.014h-179.963c-4.142 0-7.5 3.357-7.5 7.5s3.358 7.5 7.5 7.5h179.962c4.143 0 7.5-3.357 7.5-7.5s-3.357-7.5-7.499-7.5z"/><path d="m208.058 497.014h-99.13c-1.891 0-3.43-1.538-3.43-3.43v-263.12c0-4.143-3.358-7.5-7.5-7.5s-7.5 3.357-7.5 7.5v263.12c0 10.162 8.268 18.43 18.43 18.43h99.13c4.142 0 7.5-3.357 7.5-7.5s-3.358-7.5-7.5-7.5z"/></g></svg>