<svg width="533" height="537" viewBox="0 0 533 537" fill="none" xmlns="http://www.w3.org/2000/svg">
<path d="M247.473 203.473C241.417 203.473 236.473 208.368 236.473 214.473C236.473 220.523 241.417 225.473 247.473 225.473C253.572 225.473 258.473 220.523 258.473 214.473C258.473 208.368 253.572 203.473 247.473 203.473Z" fill="#AAB2BD"/>
<path d="M71.5275 5.52747L33.0275 44.0825H71.5275V5.52747Z" fill="#F5F7FA"/>
<path d="M126.583 88.0825H132.094V104.583H121.083V88.0825H126.583Z" fill="#F6BB42"/>
<path d="M247.473 241.973C241.417 241.973 236.473 246.868 236.473 252.973C236.473 259.023 241.417 263.973 247.473 263.973C253.572 263.973 258.473 259.023 258.473 252.973C258.473 246.868 253.572 241.973 247.473 241.973Z" fill="#AAB2BD"/>
<path d="M285.973 203.473C279.917 203.473 274.973 208.368 274.973 214.473C274.973 220.523 279.917 225.473 285.973 225.473C292.072 225.473 296.973 220.523 296.973 214.473C296.973 208.368 292.072 203.473 285.973 203.473Z" fill="#AAB2BD"/>
<path d="M285.973 241.973C279.917 241.973 274.973 246.868 274.973 252.973C274.973 259.023 279.917 263.973 285.973 263.973C292.072 263.973 296.973 259.023 296.973 252.973C296.973 246.868 292.072 241.973 285.973 241.973Z" fill="#AAB2BD"/>
<path d="M247.473 280.473C241.417 280.473 236.473 285.368 236.473 291.473C236.473 297.523 241.417 302.473 247.473 302.473C253.572 302.473 258.473 297.523 258.473 291.473C258.473 285.368 253.572 280.473 247.473 280.473Z" fill="#AAB2BD"/>
<path d="M307.973 324.473H186.973C180.917 324.473 175.973 319.523 175.973 313.473V324.473V335.473C175.973 341.523 180.917 346.473 186.973 346.473H307.973C314.023 346.473 318.973 341.523 318.973 335.473V313.473C318.973 319.523 314.023 324.473 307.973 324.473V324.473Z" fill="#545C66"/>
<path d="M285.973 280.473C279.917 280.473 274.973 285.368 274.973 291.473C274.973 297.523 279.917 302.473 285.973 302.473C292.072 302.473 296.973 297.523 296.973 291.473C296.973 285.368 292.072 280.473 285.973 280.473Z" fill="#AAB2BD"/>
<path d="M208.973 203.473C202.917 203.473 197.973 208.368 197.973 214.473C197.973 220.523 202.917 225.473 208.973 225.473C215.072 225.473 219.973 220.523 219.973 214.473C219.973 208.368 215.072 203.473 208.973 203.473Z" fill="#AAB2BD"/>
<path d="M175.973 286.027V258.527V231.027V203.527V176.027V170.472V148.527V148.472C175.973 142.417 180.917 137.472 186.973 137.472H247.473V5.52747H71.5276V44.0825H33.0276V324.472H175.973V313.472V286.027Z" fill="#E6E9ED"/>
<path d="M208.973 241.973C202.917 241.973 197.973 246.868 197.973 252.973C197.973 259.023 202.917 263.973 208.973 263.973C215.072 263.973 219.973 259.023 219.973 252.973C219.973 246.868 215.072 241.973 208.973 241.973Z" fill="#AAB2BD"/>
<path d="M208.973 280.473C215.072 280.473 219.973 285.368 219.973 291.473C219.973 297.523 215.072 302.473 208.973 302.473C202.917 302.473 197.973 297.523 197.973 291.473C197.973 285.368 202.923 280.473 208.973 280.473ZM285.973 225.473C279.917 225.473 274.973 220.523 274.973 214.473C274.973 208.368 279.917 203.473 285.973 203.473C292.072 203.473 296.973 208.368 296.973 214.473C296.973 220.523 292.072 225.473 285.973 225.473ZM285.973 280.473C292.072 280.473 296.973 285.368 296.973 291.473C296.973 297.523 292.072 302.473 285.973 302.473C279.917 302.473 274.973 297.523 274.973 291.473C274.973 285.368 279.923 280.473 285.973 280.473ZM285.973 241.973C292.072 241.973 296.973 246.868 296.973 252.973C296.973 259.023 292.072 263.973 285.973 263.973C279.917 263.973 274.973 259.023 274.973 252.973C274.973 246.868 279.923 241.973 285.973 241.973ZM247.473 225.473C241.417 225.473 236.473 220.523 236.473 214.473C236.473 208.368 241.417 203.473 247.473 203.473C253.572 203.473 258.473 208.368 258.473 214.473C258.473 220.523 253.572 225.473 247.473 225.473ZM247.473 280.473C253.572 280.473 258.473 285.368 258.473 291.473C258.473 297.523 253.572 302.473 247.473 302.473C241.417 302.473 236.473 297.523 236.473 291.473C236.473 285.368 241.423 280.473 247.473 280.473ZM247.473 241.973C253.572 241.973 258.473 246.868 258.473 252.973C258.473 259.023 253.572 263.973 247.473 263.973C241.417 263.973 236.473 259.023 236.473 252.973C236.473 246.868 241.423 241.973 247.473 241.973ZM208.973 225.473C202.917 225.473 197.973 220.523 197.973 214.473C197.973 208.368 202.917 203.473 208.973 203.473C215.072 203.473 219.973 208.368 219.973 214.473C219.973 220.523 215.072 225.473 208.973 225.473ZM208.973 263.973C202.917 263.973 197.973 259.023 197.973 252.973C197.973 246.868 202.917 241.973 208.973 241.973C215.072 241.973 219.973 246.868 219.973 252.973C219.973 259.023 215.072 263.973 208.973 263.973ZM175.973 286.028V313.473C175.973 319.523 180.917 324.473 186.973 324.473H307.973C314.023 324.473 318.973 319.523 318.973 313.473V170.473V148.473C318.973 142.417 314.023 137.473 307.973 137.473H247.473H186.973C180.917 137.473 175.973 142.417 175.973 148.473V148.528V170.473V176.028V203.528V231.028V258.528V286.028ZM197.973 181.473V159.473H296.973V181.473H197.973Z" fill="#656D78"/>
<path d="M208.973 280.473C202.917 280.473 197.973 285.368 197.973 291.473C197.973 297.523 202.917 302.473 208.973 302.473C215.072 302.473 219.973 297.523 219.973 291.473C219.973 285.368 215.072 280.473 208.973 280.473Z" fill="#AAB2BD"/>
<path d="M296.973 159.473H197.973V181.473H296.973V159.473Z" fill="#5D9CEC"/>
<path d="M186.984 329.956H307.984C317.081 329.956 324.484 322.553 324.484 313.456V148.456C324.484 139.359 317.081 131.956 307.984 131.956H186.984C177.887 131.956 170.484 139.359 170.484 148.456V313.456C170.484 322.553 177.887 329.956 186.984 329.956ZM307.984 142.956C311.02 142.956 313.484 145.42 313.484 148.456V313.456C313.484 316.492 311.02 318.956 307.984 318.956H186.984C183.948 318.956 181.484 316.492 181.484 313.456V148.456C181.484 145.42 183.948 142.956 186.984 142.956H307.984Z" fill="black"/>
<path d="M186.984 351.956H307.984C317.081 351.956 324.484 344.553 324.484 335.456V170.456C324.484 167.415 322.025 164.956 318.984 164.956C315.942 164.956 313.484 167.415 313.484 170.456V335.456C313.484 338.492 311.02 340.956 307.984 340.956H186.984C183.948 340.956 181.484 338.492 181.484 335.456V170.456C181.484 167.415 179.025 164.956 175.984 164.956C172.942 164.956 170.484 167.415 170.484 170.456V335.456C170.484 344.553 177.887 351.956 186.984 351.956Z" fill="black"/>
<path d="M197.984 186.956H296.984C300.025 186.956 302.484 184.498 302.484 181.456V159.456C302.484 156.415 300.025 153.956 296.984 153.956H197.984C194.942 153.956 192.484 156.415 192.484 159.456V181.456C192.484 184.498 194.942 186.956 197.984 186.956ZM291.484 175.956H203.484V164.956H291.484V175.956Z" fill="black"/>
<path d="M208.984 230.956C218.081 230.956 225.484 223.553 225.484 214.456C225.484 205.359 218.081 197.956 208.984 197.956C199.887 197.956 192.484 205.359 192.484 214.456C192.484 223.553 199.887 230.956 208.984 230.956ZM208.984 208.956C212.02 208.956 214.484 211.42 214.484 214.456C214.484 217.492 212.02 219.956 208.984 219.956C205.948 219.956 203.484 217.492 203.484 214.456C203.484 211.42 205.948 208.956 208.984 208.956Z" fill="black"/>
<path d="M247.484 230.956C256.581 230.956 263.984 223.553 263.984 214.456C263.984 205.359 256.581 197.956 247.484 197.956C238.387 197.956 230.984 205.359 230.984 214.456C230.984 223.553 238.387 230.956 247.484 230.956ZM247.484 208.956C250.52 208.956 252.984 211.42 252.984 214.456C252.984 217.492 250.52 219.956 247.484 219.956C244.448 219.956 241.984 217.492 241.984 214.456C241.984 211.42 244.448 208.956 247.484 208.956Z" fill="black"/>
<path d="M285.984 230.956C295.081 230.956 302.484 223.553 302.484 214.456C302.484 205.359 295.081 197.956 285.984 197.956C276.887 197.956 269.484 205.359 269.484 214.456C269.484 223.553 276.887 230.956 285.984 230.956ZM285.984 208.956C289.02 208.956 291.484 211.42 291.484 214.456C291.484 217.492 289.02 219.956 285.984 219.956C282.948 219.956 280.484 217.492 280.484 214.456C280.484 211.42 282.948 208.956 285.984 208.956Z" fill="black"/>
<path d="M208.984 269.456C218.081 269.456 225.484 262.053 225.484 252.956C225.484 243.859 218.081 236.456 208.984 236.456C199.887 236.456 192.484 243.859 192.484 252.956C192.484 262.053 199.887 269.456 208.984 269.456ZM208.984 247.456C212.02 247.456 214.484 249.92 214.484 252.956C214.484 255.992 212.02 258.456 208.984 258.456C205.948 258.456 203.484 255.992 203.484 252.956C203.484 249.92 205.948 247.456 208.984 247.456Z" fill="black"/>
<path d="M247.484 269.456C256.581 269.456 263.984 262.053 263.984 252.956C263.984 243.859 256.581 236.456 247.484 236.456C238.387 236.456 230.984 243.859 230.984 252.956C230.984 262.053 238.387 269.456 247.484 269.456ZM247.484 247.456C250.52 247.456 252.984 249.92 252.984 252.956C252.984 255.992 250.52 258.456 247.484 258.456C244.448 258.456 241.984 255.992 241.984 252.956C241.984 249.92 244.448 247.456 247.484 247.456Z" fill="black"/>
<path d="M285.984 269.456C295.081 269.456 302.484 262.053 302.484 252.956C302.484 243.859 295.081 236.456 285.984 236.456C276.887 236.456 269.484 243.859 269.484 252.956C269.484 262.053 276.887 269.456 285.984 269.456ZM285.984 247.456C289.02 247.456 291.484 249.92 291.484 252.956C291.484 255.992 289.02 258.456 285.984 258.456C282.948 258.456 280.484 255.992 280.484 252.956C280.484 249.92 282.948 247.456 285.984 247.456Z" fill="black"/>
<path d="M208.984 307.956C218.081 307.956 225.484 300.553 225.484 291.456C225.484 282.359 218.081 274.956 208.984 274.956C199.887 274.956 192.484 282.359 192.484 291.456C192.484 300.553 199.887 307.956 208.984 307.956ZM208.984 285.956C212.02 285.956 214.484 288.42 214.484 291.456C214.484 294.492 212.02 296.956 208.984 296.956C205.948 296.956 203.484 294.492 203.484 291.456C203.484 288.42 205.948 285.956 208.984 285.956Z" fill="black"/>
<path d="M247.484 307.956C256.581 307.956 263.984 300.553 263.984 291.456C263.984 282.359 256.581 274.956 247.484 274.956C238.387 274.956 230.984 282.359 230.984 291.456C230.984 300.553 238.387 307.956 247.484 307.956ZM247.484 285.956C250.52 285.956 252.984 288.42 252.984 291.456C252.984 294.492 250.52 296.956 247.484 296.956C244.448 296.956 241.984 294.492 241.984 291.456C241.984 288.42 244.448 285.956 247.484 285.956Z" fill="black"/>
<path d="M285.984 307.956C295.081 307.956 302.484 300.553 302.484 291.456C302.484 282.359 295.081 274.956 285.984 274.956C276.887 274.956 269.484 282.359 269.484 291.456C269.484 300.553 276.887 307.956 285.984 307.956ZM285.984 285.956C289.02 285.956 291.484 288.42 291.484 291.456C291.484 294.492 289.02 296.956 285.984 296.956C282.948 296.956 280.484 294.492 280.484 291.456C280.484 288.42 282.948 285.956 285.984 285.956Z" fill="black"/>
<path d="M71.511 11.0441H247.484C250.525 11.0441 252.984 8.58557 252.984 5.54407C252.984 2.50257 250.525 0.0440674 247.484 0.0440674H71.511C68.4695 0.0440674 66.011 2.50257 66.011 5.54407C66.011 8.58557 68.4695 11.0441 71.511 11.0441Z" fill="black"/>
<path d="M33.0165 329.934C36.058 329.934 38.5165 327.476 38.5165 324.434V44.077C38.5165 41.0355 36.058 38.577 33.0165 38.577C29.975 38.577 27.5165 41.0355 27.5165 44.077V324.44C27.5165 327.476 29.975 329.934 33.0165 329.934V329.934Z" fill="black"/>
<path d="M247.484 142.956C250.525 142.956 252.984 140.498 252.984 137.456V5.54407C252.984 2.50257 250.525 0.0440674 247.484 0.0440674C244.442 0.0440674 241.984 2.50257 241.984 5.54407V137.456C241.984 140.498 244.442 142.956 247.484 142.956Z" fill="black"/>
<path d="M33.0165 329.934H175.973C179.014 329.934 181.473 327.475 181.473 324.434C181.473 321.392 179.014 318.934 175.973 318.934H33.0165C29.975 318.934 27.5165 321.392 27.5165 324.434C27.5165 327.475 29.975 329.934 33.0165 329.934Z" fill="black"/>
<path d="M71.511 154.033H88.011C91.0525 154.033 93.511 151.574 93.511 148.533C93.511 145.491 91.0525 143.033 88.011 143.033H71.511C68.4695 143.033 66.011 145.491 66.011 148.533C66.011 151.574 68.4695 154.033 71.511 154.033Z" fill="black"/>
<path d="M121.028 154.033H175.984C179.025 154.033 181.484 151.574 181.484 148.533C181.484 145.491 179.025 143.033 175.984 143.033H121.028C117.986 143.033 115.528 145.491 115.528 148.533C115.528 151.574 117.986 154.033 121.028 154.033V154.033Z" fill="black"/>
<path d="M71.5 123H88C91.0415 123 93.5 120.541 93.5 117.5C93.5 114.459 91.0415 112 88 112H71.5C68.4585 112 66 114.459 66 117.5C66 120.541 68.4585 123 71.5 123Z" fill="black"/>
<path d="M121.017 123H175.973C179.014 123 181.473 120.541 181.473 117.5C181.473 114.459 179.014 112 175.973 112H121.017C117.975 112 115.517 114.459 115.517 117.5C115.517 120.541 117.975 123 121.017 123V123Z" fill="black"/>
<path d="M71.5 72H88C91.0415 72 93.5 69.5415 93.5 66.5C93.5 63.4585 91.0415 61 88 61H71.5C68.4585 61 66 63.4585 66 66.5C66 69.5415 68.4585 72 71.5 72Z" fill="black"/>
<path d="M121.017 72H175.973C179.014 72 181.473 69.5415 181.473 66.5C181.473 63.4585 179.014 61 175.973 61H121.017C117.975 61 115.517 63.4585 115.517 66.5C115.517 69.5415 117.975 72 121.017 72V72Z" fill="black"/>
<path d="M71.511 181.533H93.5165C96.558 181.533 99.0165 179.074 99.0165 176.033C99.0165 172.991 96.558 170.533 93.5165 170.533H71.511C68.4695 170.533 66.011 172.991 66.011 176.033C66.011 179.074 68.4695 181.533 71.511 181.533Z" fill="black"/>
<path d="M121.028 181.533H175.984C179.025 181.533 181.484 179.074 181.484 176.033C181.484 172.991 179.025 170.533 175.984 170.533H121.028C117.986 170.533 115.528 172.991 115.528 176.033C115.528 179.074 117.986 181.533 121.028 181.533V181.533Z" fill="black"/>
<path d="M71.511 209.033H88.011C91.0525 209.033 93.511 206.574 93.511 203.533C93.511 200.491 91.0525 198.033 88.011 198.033H71.511C68.4695 198.033 66.011 200.491 66.011 203.533C66.011 206.574 68.4695 209.033 71.511 209.033Z" fill="black"/>
<path d="M121.028 209.033H175.984C179.025 209.033 181.484 206.574 181.484 203.533C181.484 200.491 179.025 198.033 175.984 198.033H121.028C117.986 198.033 115.528 200.491 115.528 203.533C115.528 206.574 117.986 209.033 121.028 209.033V209.033Z" fill="black"/>
<path d="M71.511 236.533H82.5055C85.547 236.533 88.0055 234.074 88.0055 231.033C88.0055 227.991 85.547 225.533 82.5055 225.533H71.511C68.4695 225.533 66.011 227.991 66.011 231.033C66.011 234.074 68.4695 236.533 71.511 236.533Z" fill="black"/>
<path d="M121.028 236.533H175.984C179.025 236.533 181.484 234.074 181.484 231.033C181.484 227.991 179.025 225.533 175.984 225.533H121.028C117.986 225.533 115.528 227.991 115.528 231.033C115.528 234.074 117.986 236.533 121.028 236.533V236.533Z" fill="black"/>
<path d="M71.511 264.033H88.011C91.0525 264.033 93.511 261.574 93.511 258.533C93.511 255.491 91.0525 253.033 88.011 253.033H71.511C68.4695 253.033 66.011 255.491 66.011 258.533C66.011 261.574 68.4695 264.033 71.511 264.033Z" fill="black"/>
<path d="M121.028 264.033H175.984C179.025 264.033 181.484 261.574 181.484 258.533C181.484 255.491 179.025 253.033 175.984 253.033H121.028C117.986 253.033 115.528 255.491 115.528 258.533C115.528 261.574 117.986 264.033 121.028 264.033V264.033Z" fill="black"/>
<path d="M71.511 291.533H93.5165C96.558 291.533 99.0165 289.074 99.0165 286.033C99.0165 282.991 96.558 280.533 93.5165 280.533H71.511C68.4695 280.533 66.011 282.991 66.011 286.033C66.011 289.074 68.4695 291.533 71.511 291.533Z" fill="black"/>
<path d="M121.028 291.533H175.984C179.025 291.533 181.484 289.074 181.484 286.033C181.484 282.991 179.025 280.533 175.984 280.533H121.028C117.986 280.533 115.528 282.991 115.528 286.033C115.528 289.074 117.986 291.533 121.028 291.533V291.533Z" fill="black"/>
<path d="M71.511 49.5661C74.5525 49.5661 77.011 47.1076 77.011 44.0661V5.54407C77.011 2.50257 74.5525 0.0440674 71.511 0.0440674C68.4695 0.0440674 66.011 2.50257 66.011 5.54407V44.0661C66.011 47.1021 68.4695 49.5661 71.511 49.5661Z" fill="black"/>
<path d="M33.0165 49.566H71.511C74.5525 49.566 77.011 47.1075 77.011 44.066C77.011 41.0245 74.5525 38.566 71.511 38.566H33.0165C29.975 38.566 27.5165 41.0245 27.5165 44.066C27.5165 47.1075 29.975 49.566 33.0165 49.566Z" fill="black"/>
<path d="M33.0166 49.566C34.4246 49.566 35.8326 49.027 36.9051 47.9545L75.3996 9.43248C77.5501 7.28198 77.5501 3.80048 75.3996 1.65548C73.2491 -0.495023 69.7731 -0.495023 67.6226 1.65548L29.1281 40.1775C26.9776 42.328 26.9776 45.8095 29.1281 47.9545C30.2006 49.027 31.6086 49.566 33.0166 49.566Z" fill="black"/>
<g clip-path="url(#clip0)">
<path d="M444.93 301.324C479.979 164.906 385.655 178.97 385.655 178.97C385.655 178.97 358.267 154.761 309.003 169.868C258.567 185.335 256.542 220.742 224.764 236.385C224.764 236.385 233.349 248.215 252.81 248.277C251.927 263.597 253.762 281.228 258.835 301.324H444.93V301.324Z" fill="#2D4456"/>
<path d="M279.781 274.875C268.524 274.875 259.138 282.879 257 293.506C257.558 296.07 258.167 298.674 258.836 301.324H282.184V274.997C281.395 274.917 280.593 274.875 279.781 274.875Z" fill="#253847"/>
<path d="M444.93 301.324C445.6 298.716 446.217 296.17 446.794 293.671C444.719 282.963 435.298 274.875 423.983 274.875C423.172 274.875 422.37 274.918 421.58 274.999V301.325H444.93V301.324Z" fill="#253847"/>
<path d="M463.235 531.094H240.529V471.793C240.529 424.366 278.977 385.918 326.404 385.918H377.361C424.789 385.918 463.236 424.366 463.236 471.793V531.094H463.235Z" fill="#86DCFF"/>
<path d="M240.529 517.805H463.236V531.094H240.529V517.805Z" fill="#56CAED"/>
<path d="M338.961 417.518H364.799L376.704 482.764L351.883 507.841L327.056 482.764L338.961 417.518Z" fill="#FF5876"/>
<path d="M349.259 491.901L329.104 471.543L327.056 482.764L351.882 507.841L376.703 482.764L374.656 471.543L354.505 491.901C353.061 493.361 350.704 493.361 349.259 491.901Z" fill="#E6485D"/>
<path d="M364.799 417.518H338.961L326.69 385.918H377.071L364.799 417.518Z" fill="#E6485D"/>
<path d="M378.826 216.793C350.159 254.844 282.184 262.074 282.184 262.074V316.221C282.184 354.714 313.389 385.918 351.882 385.918C390.374 385.918 421.579 354.714 421.579 316.221V263.29C421.58 263.29 392.851 253.858 378.826 216.793V216.793Z" fill="#FFE0CC"/>
<path d="M351.883 372.629C313.389 372.629 282.185 341.425 282.185 302.932V316.221C282.185 354.714 313.39 385.918 351.883 385.918C390.375 385.918 421.58 354.714 421.58 316.221V302.932C421.58 341.425 390.375 372.629 351.883 372.629Z" fill="#FFCEB3"/>
<path d="M282.184 316.221V288.287C281.395 288.206 280.593 288.164 279.781 288.164C266.946 288.164 256.541 298.568 256.541 311.403C256.541 324.238 266.946 334.644 279.781 334.644C281.405 334.644 282.989 334.476 284.52 334.159C283 328.435 282.184 322.423 282.184 316.221V316.221Z" fill="#FFC4AD"/>
<path d="M423.983 288.164C423.172 288.164 422.37 288.206 421.58 288.287V316.221C421.58 322.423 420.766 328.435 419.245 334.159C420.775 334.475 422.359 334.644 423.983 334.644C436.818 334.644 447.224 324.239 447.224 311.403C447.224 298.568 436.818 288.164 423.983 288.164Z" fill="#FFC4AD"/>
<path d="M279.781 321.355C269.256 321.355 260.37 314.356 257.51 304.759C256.883 306.864 256.541 309.094 256.541 311.403C256.541 324.238 266.946 334.644 279.781 334.644C281.405 334.644 282.989 334.476 284.519 334.159C283.41 329.983 282.681 325.652 282.365 321.208C281.517 321.302 280.655 321.355 279.781 321.355V321.355Z" fill="#FFB69F"/>
<path d="M423.983 321.355C423.109 321.355 422.247 321.302 421.398 321.208C421.082 325.652 420.355 329.983 419.245 334.159C420.775 334.475 422.359 334.644 423.983 334.644C436.818 334.644 447.223 324.239 447.223 311.403C447.223 309.094 446.881 306.864 446.253 304.759C443.395 314.356 434.509 321.355 423.983 321.355V321.355Z" fill="#FFB69F"/>
<path d="M337.444 313.905C343.679 299.308 336.901 282.42 322.304 276.185C307.706 269.949 290.818 276.728 284.583 291.325C278.347 305.922 285.126 322.81 299.723 329.046C314.32 335.281 331.208 328.503 337.444 313.905Z" fill="#E4EEF9"/>
<path d="M404.266 329.004C418.864 322.768 425.642 305.88 419.407 291.283C413.171 276.686 396.283 269.907 381.686 276.143C367.089 282.378 360.31 299.267 366.546 313.864C372.781 328.461 389.669 335.239 404.266 329.004Z" fill="#E4EEF9"/>
<path d="M450.263 416.526C448.406 414.09 444.923 413.621 442.488 415.482C440.053 417.34 439.585 420.822 441.444 423.257C452.214 437.37 457.907 454.239 457.907 472.042V525.906H424.928V482.677C424.928 479.613 422.445 477.13 419.381 477.13C416.317 477.13 413.833 479.613 413.833 482.677V525.905H289.951V482.677C289.951 479.613 287.468 477.13 284.404 477.13C281.34 477.13 278.856 479.613 278.856 482.677V525.905H245.878V505.683C245.878 502.619 243.395 500.135 240.331 500.135C237.267 500.135 234.783 502.619 234.783 505.683V531.453C234.783 534.516 237.267 537 240.331 537H463.454C466.518 537 469.001 534.516 469.001 531.453V472.041C469.001 451.785 462.522 432.589 450.263 416.526Z" fill="black"/>
<path d="M252.843 300.78C251.547 304.056 250.826 307.62 250.826 311.352C250.826 327.249 263.759 340.182 279.657 340.182C279.914 340.182 280.173 340.17 280.43 340.162C286.291 357.578 298.352 372.167 313.976 381.299C269.316 387.366 234.782 425.743 234.782 472.04V483.492C234.782 486.556 237.266 489.04 240.33 489.04C243.394 489.04 245.877 486.556 245.877 483.492V472.04C245.877 428.826 280.113 393.462 322.886 391.632L333.208 418.211L321.563 482.036C321.238 483.819 321.804 485.647 323.078 486.935L347.95 512.058C350.019 514.233 353.767 514.233 355.835 512.058L380.702 486.935C381.977 485.648 382.542 483.819 382.217 482.037L370.572 418.211L380.895 391.627C397.693 392.33 413.508 398.126 426.828 408.498C429.244 410.381 432.73 409.948 434.613 407.531C436.496 405.113 436.062 401.628 433.645 399.745C420.739 389.694 405.773 383.432 389.816 381.294C405.436 372.162 417.494 357.575 423.353 340.162C423.611 340.169 423.869 340.182 424.127 340.182C440.025 340.182 452.958 327.249 452.958 311.352C452.958 307.623 452.239 304.063 450.945 300.789C463.631 250.238 460.294 213.751 440.997 192.347C422.504 171.834 395.646 172.237 387.381 172.917C379.866 167.397 352.023 150.535 307.307 164.249C301.967 165.886 296.881 167.828 292.188 170.019C289.412 171.316 288.213 174.617 289.51 177.393C290.806 180.169 294.107 181.368 296.883 180.071C301.11 178.097 305.711 176.342 310.559 174.856C329.684 168.992 347.522 168.547 363.576 173.538C375.544 177.258 382.009 182.788 382.054 182.827C383.28 183.911 384.922 184.398 386.546 184.157C386.827 184.115 415.074 180.161 432.756 199.775C440.184 208.013 444.837 219.417 446.587 233.669C448.459 248.913 447.016 267.495 442.319 289.005C438.118 285.579 432.937 283.312 427.267 282.695V263.149C427.267 260.751 425.728 258.626 423.45 257.878C423.187 257.792 397.037 248.859 384.074 214.601C383.359 212.711 381.672 211.359 379.671 211.073C377.666 210.788 375.671 211.612 374.455 213.227C347.543 248.949 282.133 256.344 281.477 256.414C278.656 256.714 276.516 259.094 276.516 261.93V282.696C270.889 283.308 265.745 285.547 261.561 288.929C258.609 274.246 257.467 260.661 258.173 248.428C258.26 246.906 257.719 245.417 256.675 244.307C255.63 243.197 254.176 242.566 252.652 242.561C243.836 242.533 237.696 239.787 233.888 237.234C244.305 230.424 251.585 221.491 258.666 212.804C264.662 205.445 270.864 197.837 279.158 191.115C281.539 189.186 281.905 185.693 279.976 183.312C278.047 180.933 274.554 180.565 272.173 182.495C262.988 189.938 256.418 197.999 250.066 205.795C241.559 216.233 234.211 225.248 222.086 231.217C219.056 232.62 218.021 236.798 220.046 239.453C220.427 239.977 228.802 251.228 246.895 253.322C246.663 267.75 248.663 283.679 252.843 300.78V300.78ZM369.022 391.553L361.036 412.118H342.743L334.757 391.553H369.022ZM351.892 500.271L332.997 481.184L343.573 423.212H360.205L370.783 481.185L351.892 500.271ZM351.892 380.459C320.803 380.459 294.8 358.272 288.878 328.901C294.836 333.875 302.497 336.874 310.847 336.874C327.887 336.874 342.061 324.392 344.721 308.092H359.063C361.724 324.392 375.898 336.874 392.938 336.874C401.288 336.874 408.948 333.874 414.906 328.901C408.985 358.272 382.982 380.459 351.892 380.459V380.459ZM287.612 302.545C287.612 289.733 298.035 279.31 310.847 279.31C323.658 279.31 334.081 289.733 334.081 302.545C334.081 315.356 323.658 325.779 310.847 325.779C298.035 325.78 287.612 315.357 287.612 302.545ZM392.938 325.78C380.126 325.78 369.703 315.357 369.703 302.546C369.703 289.733 380.126 279.31 392.938 279.31C405.75 279.31 416.173 289.733 416.173 302.546C416.173 315.357 405.749 325.78 392.938 325.78ZM441.864 311.352C441.864 320.439 434.995 327.946 426.177 328.966C426.891 324.808 427.268 320.537 427.268 316.179V293.901C435.554 295.388 441.864 302.644 441.864 311.352V311.352ZM377.314 226.946C389.584 252.289 408.19 263.172 416.172 266.86V277.301C410.053 271.665 401.892 268.215 392.937 268.215C375.897 268.215 361.722 280.698 359.062 296.998H344.721C342.061 280.698 327.886 268.215 310.846 268.215C301.891 268.215 293.73 271.665 287.611 277.301V266.788C303.051 264.467 350.173 255.293 377.314 226.946V226.946ZM276.517 293.9V316.178C276.517 320.536 276.893 324.808 277.607 328.966C268.79 327.946 261.921 320.438 261.921 311.352C261.921 302.644 268.231 295.388 276.517 293.9V293.9Z" fill="black"/>
<path d="M369.283 332.985C366.449 331.818 363.208 333.169 362.041 336.002C362.023 336.049 359.89 340.684 351.893 340.684C343.895 340.684 341.763 336.049 341.745 336.002C340.578 333.169 337.337 331.818 334.503 332.985C331.67 334.151 330.319 337.394 331.485 340.227C333.251 344.517 339.538 351.779 351.893 351.779C364.248 351.779 370.535 344.517 372.301 340.227C373.466 337.393 372.116 334.151 369.283 332.985V332.985Z" fill="black"/>
<path d="M318.057 315.919C321.121 315.919 323.604 313.436 323.604 310.372V294.717C323.604 291.654 321.121 289.17 318.057 289.17C314.993 289.17 312.509 291.654 312.509 294.717V310.372C312.509 313.436 314.992 315.919 318.057 315.919Z" fill="black"/>
<path d="M385.728 289.17C382.664 289.17 380.181 291.654 380.181 294.717V310.372C380.181 313.436 382.664 315.919 385.728 315.919C388.792 315.919 391.276 313.436 391.276 310.372V294.717C391.276 291.654 388.792 289.17 385.728 289.17Z" fill="black"/>
</g>
<defs>
<clipPath id="clip0">
<rect x="155" y="159" width="378" height="378" fill="white"/>
</clipPath>
</defs>
</svg>
