<svg width="515" height="501" viewBox="0 0 515 501" fill="none" xmlns="http://www.w3.org/2000/svg">
<g clip-path="url(#clip0)">
<path d="M65.2788 87.2749C61.5948 74.7176 50.0714 66.0943 36.985 66.1013L35.8845 66.1018L45.1226 105.239L65.2788 87.2749Z" fill="#FF8E8E"/>
<path d="M13.4814 133.912L28.1763 132.073C38.653 103.238 66.2952 82.6406 98.7502 82.6406H154.211C195.669 82.6406 229.277 116.249 229.277 157.707C229.277 186.215 213.385 211.012 189.976 223.721V243.388C189.976 248.674 185.691 252.96 180.404 252.96H151.174C145.888 252.96 141.602 248.674 141.602 243.388V232.773H99.2667V243.388C99.2667 248.674 94.981 252.96 89.6946 252.96H60.4645C55.1781 252.96 50.8923 248.674 50.8923 243.388V215.535C39.8588 206.393 31.4829 194.156 27.1 180.153L13.4829 178.448C8.65955 177.844 5.0405 173.744 5.0405 168.883V143.478C5.03949 138.617 8.65853 134.516 13.4814 133.912Z" fill="#FF8E8E"/>
<path d="M151.172 61.5016C142.266 61.5016 135.047 54.2823 135.047 45.3767C135.047 36.4711 142.266 29.2517 151.172 29.2517C160.077 29.2517 167.297 36.4711 167.297 45.3767C167.297 54.2823 160.077 61.5016 151.172 61.5016Z" fill="#FDCF84"/>
<path d="M110.235 111.867C101.329 111.867 94.1098 104.647 94.1098 95.7419C94.1098 86.8363 101.329 79.6169 110.235 79.6169C119.14 79.6169 126.36 86.8363 126.36 95.7419C126.36 104.647 119.14 111.867 110.235 111.867Z" fill="#FDCF84"/>
<path d="M12.8556 128.913L24.5608 127.447C28.1194 118.74 33.232 110.687 39.5863 103.719L30.9801 67.2593C30.6263 65.7607 30.977 64.1829 31.9324 62.9756C32.8878 61.7682 34.3426 61.0638 35.882 61.0628L36.9831 61.0623C36.9896 61.0623 36.9942 61.0623 37.0007 61.0623C51.2869 61.0623 64.1622 70.0509 69.2265 83.2351C72.8082 81.8116 76.4903 80.639 80.2454 79.7506C82.9539 79.1101 85.6684 80.7856 86.3089 83.4946C86.9493 86.2031 85.2733 88.9176 82.5648 89.5581C69.7379 92.5921 58.2958 99.0784 49.2769 108.08C48.9473 108.562 48.5366 108.99 48.0539 109.335C41.4794 116.236 36.2827 124.515 32.9115 133.793C32.266 135.571 30.6782 136.838 28.8017 137.072L14.1068 138.912C11.8095 139.2 10.0775 141.163 10.0775 143.477V168.883C10.0775 171.198 11.81 173.161 14.1068 173.448L27.7238 175.153C29.6825 175.398 31.3177 176.764 31.9072 178.648C35.9471 191.556 43.6225 202.97 54.1053 211.655C55.2607 212.612 55.9294 214.035 55.9294 215.535V243.388C55.9294 245.888 57.9632 247.921 60.4625 247.921H89.6926C92.1925 247.921 94.2262 245.888 94.2262 243.388V232.773C94.2262 229.989 96.4827 227.733 99.2653 227.733H141.6C144.383 227.733 146.639 229.989 146.639 232.773V243.388C146.639 245.888 148.673 247.921 151.173 247.921H180.404C182.903 247.921 184.937 245.888 184.937 243.388V223.721C184.937 221.873 185.948 220.174 187.572 219.293C210.188 207.013 224.238 183.415 224.238 157.707C224.238 119.093 192.824 87.6795 154.211 87.6795H147.897C145.114 87.6795 142.858 85.4236 142.858 82.6405C142.858 79.8574 145.114 77.6014 147.897 77.6014H154.211C191.617 77.6014 223.114 103.375 231.884 138.095H235.576C242.384 138.095 247.922 132.557 247.922 125.75C247.922 118.942 242.384 113.404 235.576 113.404C232.794 113.404 230.537 111.148 230.537 108.365C230.537 105.582 232.794 103.326 235.576 103.326C247.941 103.326 258 113.385 258 125.75C258 138.114 247.941 148.173 235.576 148.173H233.747C234.119 151.301 234.316 154.481 234.316 157.707C234.316 186.101 219.333 212.245 195.015 226.655V243.388C195.015 251.445 188.461 258 180.404 258H151.174C143.117 258 136.562 251.445 136.562 243.388V237.812H104.305V243.388C104.305 251.445 97.7505 258 89.6936 258H60.4636C52.4071 258 45.8523 251.445 45.8523 243.388V217.858C35.621 208.86 27.9002 197.51 23.3308 184.76L12.8561 183.448C5.52729 182.531 0.000457764 176.269 0.000457764 168.883V143.477C0.000457764 136.092 5.52678 129.83 12.8556 128.913ZM42.3965 71.7521L48.0493 95.7002C51.8085 92.6254 55.8347 89.9013 60.0695 87.5621C57.2854 79.5626 50.4948 73.6105 42.3965 71.7521Z" fill="black"/>
<path d="M57.4104 135.082C56.4732 134.145 55.9335 132.845 55.9335 131.519C55.9335 130.194 56.4727 128.894 57.4104 127.957C58.3472 127.019 59.6473 126.48 60.9725 126.48C62.2978 126.48 63.5979 127.019 64.5352 127.957C65.4724 128.894 66.0116 130.194 66.0116 131.519C66.0116 132.845 65.4729 134.145 64.5352 135.082C63.5974 136.019 62.2978 136.558 60.9725 136.558C59.6473 136.558 58.3472 136.019 57.4104 135.082Z" fill="black"/>
<path d="M110.234 29.3943C113.016 29.3943 115.273 31.6503 115.273 34.4333V54.4208C115.273 57.2038 113.016 59.4598 110.234 59.4598C107.451 59.4598 105.195 57.2038 105.195 54.4208V34.4333C105.195 31.6508 107.451 29.3943 110.234 29.3943Z" fill="black"/>
<path d="M110.235 21.1892C108.91 21.1892 107.61 20.65 106.673 19.7127C105.735 18.7755 105.196 17.4754 105.196 16.1501C105.196 14.8249 105.735 13.5298 106.673 12.5875C107.61 11.6503 108.91 11.1111 110.235 11.1111C111.561 11.1111 112.86 11.6503 113.797 12.5875C114.735 13.5248 115.274 14.8249 115.274 16.1501C115.274 17.4804 114.735 18.7755 113.797 19.7127C112.86 20.65 111.561 21.1892 110.235 21.1892Z" fill="black"/>
<path d="M151.172 18.6445C148.389 18.6445 146.132 16.3885 146.132 13.6054V5.03905C146.132 2.25598 148.389 0 151.172 0C153.954 0 156.211 2.25598 156.211 5.03905V13.6054C156.211 16.3885 153.954 18.6445 151.172 18.6445Z" fill="black"/>
<path d="M205.593 162.982C202.81 162.965 200.568 160.694 200.585 157.911L200.586 157.707C200.586 154.924 202.842 152.668 205.625 152.668C208.407 152.668 210.664 154.924 210.664 157.707L210.663 157.974C210.646 160.746 208.393 162.982 205.625 162.982C205.615 162.982 205.604 162.982 205.593 162.982Z" fill="black"/>
<path d="M183.519 205.964C182.701 206.462 181.797 206.7 180.905 206.7C179.204 206.7 177.544 205.838 176.595 204.279C175.148 201.902 175.903 198.802 178.281 197.355C187.04 192.024 193.877 183.834 197.533 174.294C198.529 171.694 201.443 170.395 204.041 171.391C206.64 172.387 207.939 175.301 206.944 177.9C202.494 189.513 194.175 199.48 183.519 205.964Z" fill="black"/>
<path d="M151.172 66.5417C139.502 66.5417 130.008 57.0476 130.008 45.3776C130.008 33.7077 139.502 24.2136 151.172 24.2136C162.841 24.2136 172.336 33.7077 172.336 45.3776C172.336 57.0476 162.841 66.5417 151.172 66.5417ZM151.172 34.2917C145.059 34.2917 140.086 39.2648 140.086 45.3776C140.086 51.4905 145.059 56.4636 151.172 56.4636C157.284 56.4636 162.257 51.4905 162.257 45.3776C162.257 39.2648 157.284 34.2917 151.172 34.2917Z" fill="black"/>
<path d="M128.252 106.828H153.187C155.97 106.828 158.226 109.084 158.226 111.867C158.226 114.65 155.97 116.906 153.187 116.906H87.6794C84.8969 116.906 82.6404 114.65 82.6404 111.867C82.6404 109.084 84.8969 106.828 87.6794 106.828H92.2146C90.2222 103.601 89.0692 99.8044 89.0692 95.7419C89.0692 84.072 98.5633 74.5779 110.233 74.5779C121.903 74.5779 131.397 84.072 131.397 95.7419C131.398 99.8044 130.245 103.601 128.252 106.828ZM110.234 84.656C104.121 84.656 99.1478 89.629 99.1478 95.7419C99.1478 101.855 104.121 106.828 110.234 106.828C116.347 106.828 121.32 101.855 121.32 95.7419C121.32 89.629 116.347 84.656 110.234 84.656Z" fill="black"/>
</g>
<path d="M508.281 282.641L448.978 239.729H237.023L177.719 282.641L237.023 325.552H448.978L508.281 282.641Z" fill="#9F9F9F"/>
<path d="M214 383.087H472V177.156C472 169.735 465.984 163.719 458.562 163.719H227.438C220.016 163.719 214 169.735 214 177.156V383.087Z" fill="#F8F8FB"/>
<path d="M177.719 282.641V467.406C177.719 482.249 189.751 494.281 204.594 494.281H481.406C496.249 494.281 508.281 482.249 508.281 467.406V282.641L345.744 415.982L177.719 282.641Z" fill="#E7E7E7"/>
<path d="M178.577 474.167C181.575 485.736 192.086 494.281 204.594 494.281H481.406C493.914 494.281 504.425 485.736 507.423 474.167L358.754 366.594C349.353 359.791 336.647 359.791 327.245 366.594L178.577 474.167Z" fill="#EEEEEE"/>
<path d="M343 321.583C376.574 321.583 403.791 294.365 403.791 260.791C403.791 227.217 376.574 200 343 200C309.426 200 282.209 227.217 282.209 260.791C282.209 294.365 309.426 321.583 343 321.583Z" fill="#6CD75A"/>
<path d="M290.09 170.438C291.857 170.438 293.59 169.719 294.839 168.469C296.089 167.219 296.809 165.486 296.809 163.719C296.809 161.952 296.09 160.218 294.839 158.969C293.59 157.719 291.857 157 290.09 157C288.315 157 286.589 157.719 285.34 158.969C284.09 160.218 283.371 161.952 283.371 163.719C283.371 165.493 284.089 167.219 285.34 168.469C286.59 169.719 288.323 170.438 290.09 170.438Z" fill="black"/>
<path d="M514.988 282.307C514.889 280.343 513.937 278.44 512.22 277.198L478.719 252.957V177.156C478.719 166.042 469.677 157 458.563 157H316.461C312.751 157 309.742 160.008 309.742 163.719C309.742 167.43 312.751 170.438 316.461 170.438H458.563C462.267 170.438 465.281 173.452 465.281 177.156V309.075L383.268 376.037L362.693 361.15C350.914 352.626 335.085 352.626 323.307 361.15L302.733 376.037L220.719 309.076V177.156C220.719 173.452 223.733 170.438 227.438 170.438H264.055C267.765 170.438 270.773 167.43 270.773 163.719C270.773 160.008 267.765 157 264.055 157H227.438C216.323 157 207.281 166.042 207.281 177.156V252.957L173.78 277.198C173.782 277.199 173.784 277.2 173.787 277.201C172.101 278.422 171 280.401 171 282.641V467.406C171 485.93 186.07 501 204.594 501H481.406C499.93 501 515 485.93 515 467.406V282.641C515 282.519 514.996 282.409 514.988 282.307ZM478.719 269.543L497.265 282.962L478.719 298.104V269.543ZM501.563 296.8V461.633L394.531 384.187L501.563 296.8ZM184.438 296.8L291.469 384.188L184.438 461.633V296.8ZM207.281 298.104L188.735 282.962L207.281 269.543V298.104ZM481.406 487.563H204.594C196.793 487.563 190.017 483.105 186.668 476.605L331.184 372.036C338.251 366.923 347.749 366.923 354.816 372.036L469.905 455.313H402.797C399.087 455.313 396.078 458.32 396.078 462.031C396.078 465.742 399.087 468.75 402.797 468.75H488.476L499.332 476.605C495.983 483.105 489.207 487.563 481.406 487.563Z" fill="black"/>
<path d="M328.891 284.402C330.151 285.662 331.86 286.37 333.641 286.37C335.423 286.37 337.132 285.662 338.392 284.402L376.113 246.682C378.736 244.058 378.736 239.804 376.113 237.18C373.488 234.556 369.235 234.556 366.61 237.18L333.641 270.15L319.389 255.897C316.765 253.274 312.512 253.274 309.887 255.897C307.263 258.521 307.263 262.775 309.887 265.4L328.891 284.402Z" fill="black"/>
<path d="M343 328.301C380.225 328.301 410.509 298.016 410.509 260.791C410.509 223.567 380.225 193.281 343 193.281C305.776 193.281 275.491 223.566 275.491 260.791C275.491 298.015 305.776 328.301 343 328.301ZM343 206.719C372.816 206.719 397.072 230.975 397.072 260.791C397.072 290.606 372.816 314.863 343 314.863C313.184 314.863 288.928 290.606 288.928 260.791C288.928 230.976 313.184 206.719 343 206.719Z" fill="black"/>
<path d="M372.341 455.312C370.567 455.312 368.84 456.031 367.591 457.281C366.334 458.531 365.622 460.264 365.622 462.031C365.622 463.798 366.334 465.532 367.591 466.781C368.84 468.031 370.568 468.75 372.341 468.75C374.108 468.75 375.841 468.031 377.091 466.781C378.34 465.532 379.06 463.798 379.06 462.031C379.06 460.264 378.341 458.531 377.091 457.281C375.841 456.031 374.108 455.312 372.341 455.312Z" fill="black"/>
<defs>
<clipPath id="clip0">
<rect width="258" height="258" transform="matrix(-1 0 0 1 258 0)" fill="white"/>
</clipPath>
</defs>
</svg>
