<svg width="461" height="494" viewBox="0 0 461 494" fill="none" xmlns="http://www.w3.org/2000/svg">
<path d="M238.8 248.567H212.267C197.613 248.567 185.733 260.446 185.733 275.1V308.267H152.567C145.249 308.289 139.322 314.215 139.3 321.533V447.567H26.5333C15.5428 447.567 6.6333 438.657 6.6333 427.667V228.667C6.6333 217.676 15.5428 208.767 26.5333 208.767H218.9C224.177 208.731 229.246 210.82 232.965 214.564C236.683 218.307 238.739 223.39 238.667 228.667L238.8 248.567Z" fill="#02A9F4"/>
<path d="M119.4 321.533V447.567H139.3V321.533C139.322 314.215 145.249 308.289 152.567 308.267H132.667C125.349 308.289 119.422 314.215 119.4 321.533Z" fill="#0377BC"/>
<path d="M165.833 275.1V308.267H185.733V275.1C185.733 260.446 197.613 248.567 212.267 248.567H192.367C177.713 248.567 165.833 260.446 165.833 275.1Z" fill="#0377BC"/>
<path d="M238.667 228.667C238.739 223.39 236.683 218.307 232.965 214.564C229.246 210.82 224.177 208.731 218.9 208.767H199C204.277 208.731 209.346 210.82 213.065 214.564C216.783 218.307 218.839 223.39 218.767 228.667L218.9 248.567H238.8L238.667 228.667Z" fill="#0377BC"/>
<path d="M26.5333 447.567H66.3333V474.1C66.3333 481.427 60.3936 487.367 53.0667 487.367H39.8C32.473 487.367 26.5333 481.427 26.5333 474.1V447.567Z" fill="#9E9E9E"/>
<path d="M159.2 460.833H205.633V474.1C205.633 481.427 199.694 487.367 192.367 487.367H172.467C165.14 487.367 159.2 481.427 159.2 474.1V460.833Z" fill="#A0522D"/>
<path d="M325.033 460.833H371.467V474.1C371.467 481.427 365.527 487.367 358.2 487.367H338.3C330.973 487.367 325.033 481.427 325.033 474.1V460.833Z" fill="#A0522D"/>
<path d="M86.2333 160.542V208.767H59.7V160.542C61.7154 161.712 64.0033 162.329 66.3333 162.333H79.6C81.93 162.329 84.2178 161.712 86.2333 160.542Z" fill="#9E9E9E"/>
<path d="M185.733 160.542V208.767H159.2V160.542C161.215 161.712 163.503 162.329 165.833 162.333H179.1C181.43 162.329 183.718 161.712 185.733 160.542Z" fill="#9E9E9E"/>
<path d="M192.367 115.9V149.067C192.367 156.394 186.427 162.333 179.1 162.333H165.833C158.506 162.333 152.567 156.394 152.567 149.067V135.8H92.8667V149.067C92.8667 156.394 86.927 162.333 79.6 162.333H66.3333C59.0063 162.333 53.0667 156.394 53.0667 149.067V115.9C53.0885 108.582 59.0154 102.655 66.3333 102.633H179.1C186.418 102.655 192.345 108.582 192.367 115.9Z" fill="#02A9F4"/>
<path d="M179.1 102.633H159.2C166.518 102.655 172.445 108.582 172.467 115.9V149.067C172.462 153.801 169.934 158.175 165.833 160.542C164.794 161.135 163.678 161.581 162.517 161.869C163.598 162.164 164.712 162.32 165.833 162.333H179.1C186.427 162.333 192.367 156.394 192.367 149.067V115.9C192.345 108.582 186.418 102.655 179.1 102.633Z" fill="#0377BC"/>
<path d="M72.9666 149.067C72.9617 153.801 70.4338 158.175 66.3333 160.542C65.2939 161.135 64.1779 161.581 63.0166 161.869C64.0979 162.164 65.2124 162.32 66.3333 162.333H79.5999C86.9269 162.333 92.8666 156.394 92.8666 149.067V135.8H72.9666V149.067Z" fill="#0377BC"/>
<path d="M378.1 308.267H152.567C145.24 308.267 139.3 314.206 139.3 321.533V447.567C139.3 454.894 145.24 460.833 152.567 460.833H378.1C385.427 460.833 391.367 454.894 391.367 447.567V321.533C391.367 314.206 385.427 308.267 378.1 308.267Z" fill="#FF9801"/>
<path d="M378.1 308.267H358.2C365.518 308.288 371.445 314.215 371.467 321.533V447.567C371.445 454.885 365.518 460.811 358.2 460.833H378.1C385.418 460.811 391.345 454.885 391.367 447.567V321.533C391.345 314.215 385.418 308.288 378.1 308.267Z" fill="#F57C00"/>
<path d="M344.933 275.1V308.267H311.767V281.733H218.9V308.267H185.733V275.1C185.733 260.446 197.613 248.567 212.267 248.567H318.4C333.054 248.567 344.933 260.446 344.933 275.1Z" fill="#FF5722"/>
<path d="M318.4 248.567H298.5C313.154 248.567 325.033 260.446 325.033 275.1V308.267H344.933V275.1C344.933 260.446 333.054 248.567 318.4 248.567Z" fill="#D84315"/>
<path d="M338.3 407.767H311.767C308.103 407.767 305.133 404.797 305.133 401.133V364.079C305.134 362.32 305.833 360.633 307.077 359.39L320.344 346.123C322.934 343.534 327.133 343.534 329.723 346.123L342.99 359.39C344.234 360.633 344.933 362.32 344.933 364.079V401.133C344.933 404.797 341.963 407.767 338.3 407.767Z" fill="#FFDC00"/>
<path d="M342.99 359.39L329.723 346.123C327.133 343.534 322.934 343.534 320.343 346.123L315.083 351.383L323.09 359.39C324.334 360.633 325.033 362.32 325.033 364.079V401.133C325.033 404.797 322.063 407.767 318.4 407.767H338.3C341.963 407.767 344.933 404.797 344.933 401.133V364.079C344.933 362.32 344.234 360.633 342.99 359.39Z" fill="#FEC108"/>
<path d="M19.9 453.258V474.1C19.9 485.09 28.8095 494 39.8 494H53.0667C64.0571 494 72.9667 485.09 72.9667 474.1V454.2H112.767C116.43 454.2 119.4 451.23 119.4 447.567C119.4 443.903 116.43 440.933 112.767 440.933H26.5333C19.2064 440.933 13.2667 434.994 13.2667 427.667V228.667C13.2667 221.34 19.2064 215.4 26.5333 215.4H218.9C224.493 215.368 229.488 218.895 231.331 224.176C232.048 226.48 233.959 228.214 236.323 228.702C238.686 229.19 241.128 228.356 242.7 226.525C244.271 224.693 244.723 222.152 243.881 219.891C240.209 209.238 230.168 202.1 218.9 202.133H192.367V163.793C196.57 160.05 198.982 154.695 199 149.067V115.9C199 104.91 190.09 96 179.1 96H66.3333C55.3429 96 46.4333 104.91 46.4333 115.9V149.067C46.451 154.695 48.8631 160.05 53.0667 163.793V202.133H26.5333C11.8794 202.133 0 214.013 0 228.667V427.667C0.045205 439.729 8.22079 450.243 19.9 453.258V453.258ZM59.7 454.2V474.1C59.7 477.763 56.7302 480.733 53.0667 480.733H39.8C36.1365 480.733 33.1667 477.763 33.1667 474.1V454.2H59.7ZM99.5 149.067V142.433H145.933V149.067C145.951 154.695 148.363 160.05 152.567 163.793V202.133H92.8667V163.793C97.0702 160.05 99.4824 154.695 99.5 149.067V149.067ZM179.1 202.133H165.833V168.967H179.1V202.133ZM59.7 115.9C59.7 112.237 62.6698 109.267 66.3333 109.267H179.1C182.763 109.267 185.733 112.237 185.733 115.9V149.067C185.733 152.73 182.763 155.7 179.1 155.7H165.833C162.17 155.7 159.2 152.73 159.2 149.067V135.8C159.2 132.137 156.23 129.167 152.567 129.167H92.8667C89.2032 129.167 86.2333 132.137 86.2333 135.8V149.067C86.2333 152.73 83.2635 155.7 79.6 155.7H66.3333C62.6698 155.7 59.7 152.73 59.7 149.067V115.9ZM66.3333 168.967H79.6V202.133H66.3333V168.967Z" fill="black"/>
<path d="M33.1667 241.933V414.4C33.1667 418.064 36.1366 421.033 39.8001 421.033C43.4636 421.033 46.4334 418.064 46.4334 414.4V241.933C46.4334 238.27 43.4636 235.3 39.8001 235.3C36.1366 235.3 33.1667 238.27 33.1667 241.933Z" fill="black"/>
<path d="M66.3333 241.933V414.4C66.3333 418.064 69.3031 421.033 72.9666 421.033C76.6301 421.033 79.5999 418.064 79.5999 414.4V241.933C79.5999 238.27 76.6301 235.3 72.9666 235.3C69.3031 235.3 66.3333 238.27 66.3333 241.933Z" fill="black"/>
<path d="M99.5 241.933V414.4C99.5 418.064 102.47 421.033 106.133 421.033C109.797 421.033 112.767 418.064 112.767 414.4V241.933C112.767 238.27 109.797 235.3 106.133 235.3C102.47 235.3 99.5 238.27 99.5 241.933Z" fill="black"/>
<path d="M145.933 281.733V241.933C145.933 238.27 142.964 235.3 139.3 235.3C135.637 235.3 132.667 238.27 132.667 241.933V281.733C132.667 285.397 135.637 288.367 139.3 288.367C142.964 288.367 145.933 285.397 145.933 281.733Z" fill="black"/>
<path d="M179.1 275.1V301.633H152.567C141.576 301.633 132.667 310.543 132.667 321.533V447.567C132.667 458.557 141.576 467.467 152.567 467.467V474.1C152.567 485.09 161.476 494 172.467 494H192.367C203.357 494 212.267 485.09 212.267 474.1V467.467H318.4V474.1C318.4 485.09 327.31 494 338.3 494H358.2C369.191 494 378.1 485.09 378.1 474.1V467.467C389.091 467.467 398 458.557 398 447.567V321.533C398 310.543 389.091 301.633 378.1 301.633H351.567V275.1C351.545 256.792 336.708 241.955 318.4 241.933H212.267C193.958 241.955 179.122 256.792 179.1 275.1ZM145.933 447.567V321.533C145.933 317.87 148.903 314.9 152.567 314.9H199V454.2H152.567C148.903 454.2 145.933 451.23 145.933 447.567ZM218.9 314.9H318.4V339.384C317.399 339.943 316.475 340.632 315.654 341.433L302.387 354.7C299.89 357.182 298.491 360.559 298.5 364.08V401.133C298.5 408.46 304.44 414.4 311.767 414.4H318.4V454.2H212.267V314.9H218.9ZM311.767 401.133V364.08L325 350.813H325.067L338.3 364.08V401.133H311.767ZM305.133 301.633H225.533V288.367H305.133V301.633ZM199 474.1C199 477.764 196.03 480.733 192.367 480.733H172.467C168.803 480.733 165.833 477.764 165.833 474.1V467.467H199V474.1ZM364.833 474.1C364.833 477.764 361.864 480.733 358.2 480.733H338.3C334.637 480.733 331.667 477.764 331.667 474.1V467.467H364.833V474.1ZM384.733 321.533V447.567C384.733 451.23 381.764 454.2 378.1 454.2H331.667V414.4H338.3C345.627 414.4 351.567 408.46 351.567 401.133V364.08C351.576 360.559 350.176 357.182 347.68 354.7L334.413 341.433C333.592 340.632 332.668 339.943 331.667 339.384V314.9H378.1C381.764 314.9 384.733 317.87 384.733 321.533ZM338.3 275.1V301.633H318.4V281.733C318.4 278.07 315.43 275.1 311.767 275.1H218.9C215.237 275.1 212.267 278.07 212.267 281.733V301.633H192.367V275.1C192.367 264.11 201.276 255.2 212.267 255.2H318.4C329.391 255.2 338.3 264.11 338.3 275.1Z" fill="black"/>
<path d="M165.833 374.6C162.17 374.6 159.2 371.63 159.2 367.967V334.8C159.2 331.136 162.17 328.167 165.833 328.167H179.1C182.763 328.167 185.733 331.136 185.733 334.8C185.733 338.463 182.763 341.433 179.1 341.433H172.467V367.967C172.467 371.63 169.497 374.6 165.833 374.6Z" fill="#F5F5F5"/>
<g clip-path="url(#clip0)">
<path d="M388.182 29.5985H358.518V46.7153H388.182V29.5985Z" fill="#D5F5FB"/>
<path d="M357.741 29.5985H388.96C394.707 29.5985 399.366 24.9394 399.366 19.1921C399.366 13.4447 394.707 8.78564 388.96 8.78564H357.741C351.993 8.78564 347.334 13.4447 347.334 19.1921C347.334 24.9394 351.993 29.5985 357.741 29.5985Z" fill="#FF5722"/>
<path d="M373.417 213.218C419.395 213.218 456.668 175.945 456.668 129.967C456.668 83.9881 419.395 46.7152 373.417 46.7152C327.438 46.7152 290.165 83.9881 290.165 129.967C290.165 175.945 327.438 213.218 373.417 213.218Z" fill="#5A5A5A"/>
<path d="M373.417 192.895C408.171 192.895 436.345 164.721 436.345 129.967C436.345 95.2124 408.171 67.0386 373.417 67.0386C338.662 67.0386 310.489 95.2124 310.489 129.967C310.489 164.721 338.662 192.895 373.417 192.895Z" fill="white"/>
<path d="M373.416 139.104C378.463 139.104 382.554 135.013 382.554 129.966C382.554 124.92 378.463 120.829 373.416 120.829C368.37 120.829 364.279 124.92 364.279 129.966C364.279 135.013 368.37 139.104 373.416 139.104Z" fill="#FF838E"/>
<path d="M460.572 121.255C458.579 101.206 449.622 82.3047 435.35 68.0328C423.154 55.8369 408.226 47.9996 392.518 44.5147V33.4978C398.934 31.9017 403.703 26.0945 403.703 19.192C403.703 11.0629 397.089 4.44958 388.96 4.44958H357.741C349.612 4.44958 342.999 11.0629 342.999 19.192C342.999 26.0941 347.767 31.9013 354.183 33.4978V44.5455C338.523 48.0451 323.644 55.8716 311.483 68.0332C308.821 70.6946 306.367 73.4866 304.121 76.3882C304.012 76.38 303.903 76.3718 303.792 76.3718H272.893C270.499 76.3718 268.557 78.313 268.557 80.7078C268.557 83.1026 270.499 85.0438 272.893 85.0438H298.221C295.042 90.3662 292.478 95.9558 290.527 101.71H243.336C240.942 101.71 239 103.651 239 106.046C239 108.44 240.942 110.382 243.336 110.382H288.077C286.827 115.867 286.11 121.45 285.925 127.048H266.75C264.356 127.048 262.414 128.989 262.414 131.384C262.414 133.779 264.356 135.72 266.75 135.72H286.063C286.429 141.332 287.331 146.916 288.77 152.386H260.68C258.286 152.386 256.344 154.328 256.344 156.722C256.344 159.117 258.286 161.058 260.68 161.058H291.538C295.791 172.311 302.439 182.857 311.483 191.901C325.768 206.187 344.689 215.146 364.758 217.128C367.623 217.411 370.489 217.551 373.352 217.551C390.272 217.551 406.977 212.655 421.151 203.424C423.158 202.117 423.726 199.431 422.419 197.424C421.112 195.418 418.426 194.85 416.419 196.157C385.392 216.361 343.839 211.993 317.615 185.769C286.846 155 286.846 104.935 317.615 74.1656C348.384 43.3969 398.448 43.3969 429.218 74.1656C455.407 100.355 459.799 141.873 439.662 172.885C438.357 174.893 438.928 177.579 440.936 178.883C442.946 180.187 445.631 179.616 446.934 177.608C457.694 161.037 462.537 141.025 460.572 121.255ZM351.671 19.1924C351.671 15.845 354.394 13.122 357.741 13.122H388.96C392.308 13.122 395.031 15.845 395.031 19.1924C395.031 22.5398 392.308 25.2628 388.96 25.2628H388.182H358.519H357.741C354.394 25.2628 351.671 22.5394 351.671 19.1924ZM362.855 43.0548V33.9349H383.846V43.0392C376.876 42.2101 369.824 42.2153 362.855 43.0548Z" fill="black"/>
<path d="M432.286 184.497C431.141 184.497 430.027 184.961 429.221 185.767C428.41 186.574 427.95 187.693 427.95 188.833C427.95 189.973 428.41 191.092 429.221 191.899C430.027 192.709 431.142 193.169 432.286 193.169C433.426 193.169 434.541 192.709 435.352 191.899C436.158 191.092 436.622 189.973 436.622 188.833C436.622 187.693 436.159 186.574 435.352 185.767C434.541 184.961 433.426 184.497 432.286 184.497Z" fill="black"/>
<path d="M373.417 62.7026C336.327 62.7026 306.153 92.8769 306.153 129.967C306.153 167.056 336.327 197.231 373.417 197.231C410.506 197.231 440.681 167.056 440.681 129.967C440.681 92.8769 410.506 62.7026 373.417 62.7026ZM373.417 188.559C341.109 188.559 314.825 162.274 314.825 129.967C314.825 97.6591 341.109 71.3746 373.417 71.3746C405.725 71.3746 432.009 97.6591 432.009 129.967C432.009 162.274 405.725 188.559 373.417 188.559Z" fill="black"/>
<path d="M400.845 96.4067L379.368 117.883C377.572 116.995 375.552 116.493 373.417 116.493C371.281 116.493 369.261 116.995 367.465 117.883L357.853 108.271C356.16 106.578 353.415 106.578 351.721 108.271C350.028 109.964 350.028 112.71 351.721 114.403L361.333 124.015C360.444 125.81 359.943 127.831 359.943 129.966C359.943 137.395 365.987 143.44 373.417 143.44C380.846 143.44 386.89 137.395 386.89 129.966C386.89 127.831 386.389 125.81 385.501 124.015L406.347 103.169L406.977 102.539C408.67 100.846 408.67 98.1 406.977 96.4067C405.283 94.7135 402.539 94.7135 400.845 96.4067ZM373.417 134.768C370.769 134.768 368.615 132.614 368.615 129.967C368.615 127.319 370.769 125.165 373.417 125.165C376.064 125.165 378.218 127.319 378.218 129.967C378.218 132.614 376.064 134.768 373.417 134.768Z" fill="black"/>
<path d="M419.777 125.683H415.759C413.365 125.683 411.423 127.625 411.423 130.019C411.423 132.414 413.365 134.355 415.759 134.355H419.777C422.171 134.355 424.112 132.414 424.112 130.019C424.112 127.625 422.171 125.683 419.777 125.683Z" fill="black"/>
<path d="M331.073 125.578H327.056C324.662 125.578 322.72 127.519 322.72 129.914C322.72 132.308 324.662 134.25 327.056 134.25H331.073C333.468 134.25 335.409 132.308 335.409 129.914C335.409 127.519 333.468 125.578 331.073 125.578Z" fill="black"/>
<path d="M373.469 91.9592C375.864 91.9592 377.805 90.018 377.805 87.6233V83.6064C377.805 81.2117 375.864 79.2705 373.469 79.2705C371.075 79.2705 369.134 81.2117 369.134 83.6064V87.6233C369.134 90.018 371.075 91.9592 373.469 91.9592Z" fill="black"/>
<path d="M373.364 167.974C370.969 167.974 369.028 169.915 369.028 172.31V176.327C369.028 178.721 370.969 180.663 373.364 180.663C375.758 180.663 377.7 178.721 377.7 176.327V172.31C377.7 169.915 375.758 167.974 373.364 167.974Z" fill="black"/>
<path d="M243.336 152.385C242.196 152.385 241.077 152.849 240.27 153.655C239.464 154.462 239 155.58 239 156.721C239 157.865 239.464 158.98 240.27 159.786C241.077 160.593 242.196 161.057 243.336 161.057C244.476 161.057 245.595 160.593 246.401 159.786C247.207 158.98 247.672 157.861 247.672 156.721C247.672 155.58 247.208 154.462 246.401 153.655C245.595 152.849 244.476 152.385 243.336 152.385Z" fill="black"/>
</g>
<defs>
<clipPath id="clip0">
<rect x="239" width="222" height="222" fill="white"/>
</clipPath>
</defs>
</svg>
