<svg width="513" height="513" viewBox="0 0 513 513" fill="none" xmlns="http://www.w3.org/2000/svg">
<g clip-path="url(#clip0)">
<path d="M502.001 492.002H458.001V413.002C458.001 407.479 453.523 403.002 448.001 403.002C442.479 403.002 438.001 407.479 438.001 413.002V492.002H318.001V302.002C318.001 296.479 313.523 292.002 308.001 292.002H204.001C198.479 292.002 194.001 296.479 194.001 302.002V492.002H74.0011V266.001H77.8491C80.5011 266.001 83.0441 264.947 84.9201 263.072L256.001 91.991L427.082 263.072C428.958 264.947 431.501 266.001 434.153 266.001H438.001V341.001C438.001 346.524 442.479 351.001 448.001 351.001C453.523 351.001 458.001 346.524 458.001 341.001V266.001H502.001C506.046 266.001 509.692 263.564 511.24 259.828C512.788 256.092 511.931 251.79 509.072 248.93L263.072 2.92997C259.166 -0.975029 252.836 -0.975029 248.929 2.92997L154.929 96.93C151.024 100.835 151.024 107.167 154.929 111.072C158.835 114.978 165.167 114.978 169.072 111.072L256.001 24.143L477.858 246.001H438.295L263.072 70.778C259.166 66.873 252.836 66.873 248.929 70.778L73.7061 246.001H34.1431L113.072 167.073C116.977 163.168 116.977 156.836 113.072 152.93C109.167 149.026 102.835 149.025 98.9291 152.93L2.92905 248.93C0.0700519 251.79 -0.786948 256.091 0.761052 259.828C2.30905 263.565 5.95605 266.001 10.0011 266.001H54.0011V492.001H10.0011C4.47905 492.001 0.00105194 496.478 0.00105194 502.001C0.00105194 507.524 4.47905 512.001 10.0011 512.001H64.0011H204.001H308.001H448.001H502.001C507.523 512.001 512.001 507.524 512.001 502.001C512.001 496.478 507.523 492.002 502.001 492.002ZM298.001 492.002H214.001V312.002H298.001V492.002Z"/>
<path d="M406.001 292.002H350.001C344.479 292.002 340.001 296.479 340.001 302.002V402.002C340.001 407.525 344.479 412.002 350.001 412.002H406.001C411.523 412.002 416.001 407.525 416.001 402.002V302.002C416.001 296.479 411.523 292.002 406.001 292.002ZM396.001 392.002H360.001V312.002H396.001V392.002Z"/>
<path d="M162.001 292.002H106.001C100.479 292.002 96.001 296.479 96.001 302.002V402.002C96.001 407.525 100.479 412.002 106.001 412.002H162.001C167.523 412.002 172.001 407.525 172.001 402.002V302.002C172.001 296.479 167.523 292.002 162.001 292.002ZM152.001 392.002H116.001V312.002H152.001V392.002Z"/>
<path d="M256.001 164.322C230.637 164.322 210.001 184.958 210.001 210.322C210.001 235.686 230.637 256.322 256.001 256.322C281.365 256.322 302.001 235.686 302.001 210.322C302.001 184.958 281.365 164.322 256.001 164.322ZM256.001 236.322C241.664 236.322 230.001 224.658 230.001 210.322C230.001 195.986 241.664 184.322 256.001 184.322C270.338 184.322 282.001 195.986 282.001 210.322C282.001 224.658 270.338 236.322 256.001 236.322Z"/>
<path d="M244.07 394.932C242.211 393.072 239.63 392.002 237.001 392.002C234.371 392.002 231.791 393.072 229.931 394.932C228.071 396.792 227.001 399.372 227.001 402.002C227.001 404.632 228.07 407.212 229.931 409.072C231.792 410.932 234.371 412.002 237.001 412.002C239.631 412.002 242.211 410.932 244.07 409.072C245.93 407.212 247.001 404.632 247.001 402.002C247.001 399.372 245.931 396.792 244.07 394.932Z"/>
<path d="M140.07 125.932C138.211 124.072 135.631 123.002 133.001 123.002C130.371 123.002 127.791 124.072 125.931 125.932C124.071 127.792 123.001 130.372 123.001 133.002C123.001 135.632 124.07 138.212 125.931 140.072C127.792 141.932 130.371 143.002 133.001 143.002C135.631 143.002 138.211 141.932 140.07 140.072C141.93 138.212 143.001 135.632 143.001 133.002C143.001 130.372 141.931 127.792 140.07 125.932Z"/>
<path d="M455.07 367.261C453.211 365.402 450.63 364.331 448.001 364.331C445.371 364.331 442.791 365.401 440.931 367.261C439.071 369.131 438.001 371.701 438.001 374.331C438.001 376.961 439.07 379.541 440.931 381.411C442.791 383.271 445.371 384.331 448.001 384.331C450.631 384.331 453.211 383.271 455.07 381.411C456.93 379.541 458.001 376.971 458.001 374.331C458.001 371.701 456.931 369.121 455.07 367.261Z"/>
</g>
<defs>
<clipPath id="clip0">
<rect width="512.002" height="512.002" fill="white"/>
</clipPath>
</defs>
</svg>
