<svg width="512" height="512" viewBox="0 0 512 512" fill="none" xmlns="http://www.w3.org/2000/svg">
<path d="M462.56 392.08C460.24 385.2 454.8 379.76 448 377.36V352V320H416H384V352V384L383.6 385.2C381.2 384.4 378.64 384 376 384C362.72 384 352 394.72 352 408V304V272V262.64L372.72 283.28C375.68 286.32 379.76 288 384 288C388.24 288 392.32 286.32 395.28 283.28C398.32 280.32 400 276.24 400 272C400 267.76 398.32 263.68 395.28 260.72L374.64 240.08V240H457.36L468.72 251.28C471.68 254.32 475.76 256 480 256V398.08L479.92 398.16C475.68 394.32 470.16 392 464 392C463.52 392 463.04 392 462.56 392.08V392.08Z" fill="#E6E9ED"/>
<path d="M304 304H112H96V432H104C108.4 432 112 435.6 112 440V496H304V440C304 435.6 307.6 432 312 432H320V304H304Z" fill="#E6E9ED"/>
<path d="M494.472 425.392C495.4 422.368 496 419.232 496 416C496 407.912 492.968 400.528 488 394.888V262.544C491.328 261.368 494.4 259.536 496.968 256.968C501.504 252.44 504 246.408 504 240C504 233.592 501.504 227.56 496.968 223.032L320.968 47.032C311.904 37.96 296.096 37.96 287.032 47.032L240 94.064L224.968 79.032C215.904 69.96 200.096 69.96 191.032 79.032L15.032 255.032C10.496 259.56 8 265.592 8 272C8 278.408 10.496 284.44 15.032 288.968C24.096 298.04 39.904 298.04 48.968 288.968L56 281.936V424C47.176 424 40 431.176 40 440V488H8V504H504V440C504 433.48 500.072 427.888 494.472 425.392ZM488 456H456V440H488V456ZM72 280H104V296H72V280ZM400.968 255.032L393.936 248H454.064L463.032 256.968C465.6 259.536 468.68 261.368 472 262.544V385.12C470.616 384.76 469.224 384.392 467.776 384.216C464.968 379.208 460.872 375.128 456 372.304V312H376V376C370.144 376 364.728 377.696 360 380.448V281.936L367.032 288.968C371.56 293.504 377.592 296 384 296C390.408 296 396.44 293.504 400.968 288.968C405.504 284.44 408 278.408 408 272C408 265.592 405.504 259.56 400.968 255.032ZM273.936 128L304 97.936L438.064 232H377.936L273.936 128ZM477.84 424H448C448 409.64 438.424 397.6 425.376 393.56C427.856 387.944 433.472 384 440 384C446.784 384 452.808 388.288 454.992 394.664L457.336 401.088L464 400C472.824 400 480 407.176 480 416C480 418.84 479.232 421.584 477.84 424ZM408 456V440H440V456H408ZM344 280V296H312V280H344ZM424 372.448V360H440V368C434.144 368 428.728 369.696 424 372.448ZM400 424C400 415.176 407.176 408 416 408C424.824 408 432 415.176 432 424H400ZM440 344H424V328H440V344ZM408 344H392V328H408V344ZM392 360H408V393.136C406.912 393.416 405.84 393.736 404.808 394.128C402.008 388.36 397.496 383.632 392 380.424V360ZM391.432 403.752C386.856 409.288 384 416.28 384 424H360V408C360 399.176 367.176 392 376 392C383.28 392 389.552 396.96 391.432 403.752ZM73.936 264L208 129.936L342.064 264H73.936ZM120 280H296V296H120V280ZM344 312V424H328V312H344ZM392 440V456H376V440H392ZM376 472H408V488H376V472ZM424 472H456V488H424V472ZM298.344 58.344C301.416 55.28 306.584 55.28 309.656 58.344L485.656 234.344C487.184 235.88 488 237.832 488 240C488 242.168 487.184 244.12 485.656 245.656C482.584 248.72 477.416 248.72 474.344 245.656L304 75.312L262.624 116.688L251.312 105.376L298.344 58.344ZM37.656 277.656C34.584 280.72 29.416 280.72 26.344 277.656C24.816 276.12 24 274.168 24 272C24 269.832 24.816 267.88 26.344 266.344L202.344 90.344C205.416 87.28 210.584 87.28 213.656 90.344L389.656 266.344C391.184 267.88 392 269.832 392 272C392 274.168 391.184 276.12 389.656 277.656C386.584 280.72 381.416 280.72 378.344 277.656L208 107.312L37.656 277.656ZM72 312H88V424H72V312ZM56 440H104V488H56V440ZM248 488H168V344H248V488ZM296 440V488H264V328H152V488H120V440C120 431.176 112.824 424 104 424V312H312V424C303.176 424 296 431.176 296 440ZM312 440H360V488H312V440ZM472 488V472H488V488H472Z" fill="black"/>
<path d="M184 360H232V376H184V360Z" fill="black"/>
</svg>
