<?xml version="1.0" encoding="iso-8859-1"?>
<!-- Generator: Adobe Illustrator 19.0.0, SVG Export Plug-In . SVG Version: 6.00 Build 0)  -->
<svg version="1.1" id="Capa_1" xmlns="http://www.w3.org/2000/svg" xmlns:xlink="http://www.w3.org/1999/xlink" x="0px" y="0px"
	 viewBox="0 0 512 512" style="enable-background:new 0 0 512 512;" xml:space="preserve">
<g>
	<g>
		<g>
			<path d="M504.813,254.448L475.271,121.49c-4.75-21.292-23.292-36.156-45.083-36.156c-25.458,0-46.188,20.719-46.188,46.177v7.156
				c0,5.896,4.771,10.667,10.667,10.667s10.667-4.771,10.667-10.667v-7.156c0-13.698,11.146-24.844,24.854-24.844
				c11.729,0,21.708,8.01,24.25,19.458l29.542,132.948c3.667,16.521,5.833,33.375,6.479,50.26h-0.87
				c-5.441-53.75-50.428-96-105.589-96c-48.228,0-88.613,32.385-101.758,76.398c-6.527-6.881-15.129-12.398-26.242-12.398
				s-19.715,5.517-26.242,12.398c-13.145-44.013-53.53-76.398-101.758-76.398c-55.16,0-100.147,42.25-105.589,96h-0.87
				c0.646-16.885,2.813-33.74,6.479-50.26l29.542-132.938c2.542-11.458,12.521-19.469,24.25-19.469
				c13.708,0,24.854,11.146,24.854,24.844v7.156c0,5.896,4.771,10.667,10.667,10.667c5.896,0,10.667-4.771,10.667-10.667v-7.156
				c0-25.458-20.729-46.177-46.188-46.177c-21.792,0-40.333,14.865-45.083,36.167L7.188,254.448C2.417,275.969,0,298.021,0,320
				c0,5.896,4.771,10.667,10.667,10.667h11.745c5.441,53.75,50.428,96,105.589,96c57.904,0,104.951-46.451,106.398-104.012
				c2.143-5.964,10.667-23.988,21.602-23.988c10.654,0,19.07,17.02,21.599,23.956c1.43,57.576,48.487,104.044,106.401,104.044
				c55.16,0,100.147-42.25,105.589-96h11.745c5.896,0,10.667-4.771,10.667-10.667C512,298.021,509.583,275.969,504.813,254.448z
				 M128,405.333c-47.063,0-85.333-38.281-85.333-85.333c0-47.052,38.271-85.333,85.333-85.333s85.333,38.281,85.333,85.333
				C213.333,367.052,175.063,405.333,128,405.333z M384,405.333c-47.063,0-85.333-38.281-85.333-85.333
				c0-47.052,38.271-85.333,85.333-85.333s85.333,38.281,85.333,85.333C469.333,367.052,431.063,405.333,384,405.333z"/>
			<path d="M128,256c-35.292,0-64,28.708-64,64c0,5.896,4.771,10.667,10.667,10.667c5.896,0,10.667-4.771,10.667-10.667
				c0-23.531,19.146-42.667,42.667-42.667c5.896,0,10.667-4.771,10.667-10.667C138.667,260.771,133.896,256,128,256z"/>
			<path d="M384,256c-35.292,0-64,28.708-64,64c0,5.896,4.771,10.667,10.667,10.667c5.896,0,10.667-4.771,10.667-10.667
				c0-23.531,19.146-42.667,42.667-42.667c5.896,0,10.667-4.771,10.667-10.667C394.667,260.771,389.896,256,384,256z"/>
		</g>
	</g>
</g>
</svg>
