<svg class="h-full w-full fill-current text-gray-500" viewBox="0 0 424 512" fill="none" xmlns="http://www.w3.org/2000/svg">
<g clip-path="url(#clip0)">
<path d="M246.831 43.466H199.054C194.911 43.466 191.552 46.8238 191.552 50.9677V74.8452C191.552 92.0242 215.148 103.454 219.879 105.57C220.854 106.007 221.898 106.224 222.942 106.224C223.986 106.224 225.032 106.006 226.006 105.57C230.736 103.454 254.332 92.0242 254.332 74.8452V50.9677C254.332 46.8238 250.974 43.466 246.831 43.466ZM239.329 74.8452C239.329 77.5729 236.091 81.5638 230.667 85.5227C227.849 87.5792 224.979 89.2446 222.908 90.3528C215.376 86.3449 206.555 79.5403 206.555 74.8452V58.4695H239.33V74.8452H239.329Z"/>
<path d="M430.43 480.424L426.028 431.233C423.183 399.45 401.59 373.007 371.52 363.63C371.194 360.229 370.114 356.918 368.267 353.925C365.091 348.778 360.102 345.177 354.133 343.763L329.98 338.329C320.26 336.025 310.5 340.39 305.507 348.444L287.711 344.421L274.41 331.585C273.498 323.263 273.65 314.855 274.887 306.57L276.869 293.311C300.985 270.816 312.774 250.771 312.774 232.369C312.774 230.034 312.679 227.751 312.485 225.492C312.397 224.598 312.318 223.649 312.245 222.655C326.954 219.74 338.209 206.775 338.399 191.265C338.506 182.537 335.186 174.31 329.051 168.1C324.712 163.707 319.344 160.718 313.486 159.338V139.114C326.03 125.04 332.913 106.734 332.913 87.2001C332.913 39.117 283.58 0 222.942 0C162.304 0 112.972 39.117 112.972 87.2001C112.972 105.997 120.565 124.341 134.395 139.194V159.311C128.537 160.69 123.17 163.68 118.831 168.073C112.696 174.283 109.376 182.511 109.483 191.238C109.674 206.751 120.932 219.717 135.643 222.629C135.568 223.677 135.485 224.679 135.393 225.618C135.206 227.74 135.112 230.012 135.112 232.368C135.112 250.687 146.792 270.63 170.668 292.984L172.66 306.31C173.839 314.203 174.035 322.209 173.263 330.148L158.448 343.905L138.473 348.426C133.48 340.382 123.737 336.02 114.09 338.304L89.7695 343.777C83.8852 345.173 78.895 348.773 75.7203 353.92C73.8729 356.913 72.7926 360.224 72.4665 363.626C42.4036 373.007 20.8166 399.449 17.973 431.225L13.569 480.426C12.8458 488.506 15.5714 496.575 21.0487 502.565C26.5329 508.562 34.3427 512.002 42.4736 512.002H129.669C133.812 512.002 137.17 508.644 137.17 504.5C137.17 500.356 133.812 496.999 129.669 496.999H113.812V438.449C113.812 434.305 110.453 430.947 106.31 430.947C102.167 430.947 98.8086 434.305 98.8086 438.449V496.999H42.4746C38.4867 496.999 34.8089 495.38 32.1212 492.439C29.4406 489.508 28.1593 485.717 28.5134 481.764L32.9174 432.564C35.1869 407.203 52.2419 386.057 76.0744 378.238C80.2273 384.543 87.35 388.455 94.9667 388.455C96.6731 388.455 98.4045 388.258 100.131 387.85L124.451 382.376C130.336 380.982 135.325 377.381 138.501 372.235C140.247 369.404 141.304 366.289 141.692 363.083L156.749 359.675L169.709 405.262C170.378 407.616 172.151 409.493 174.461 410.297C175.264 410.576 176.096 410.713 176.924 410.713C178.478 410.713 180.017 410.23 181.312 409.296L197.953 397.298L203.483 411.766L180.701 496.998H164.588C160.445 496.998 157.086 500.355 157.086 504.499C157.086 508.643 160.445 512.001 164.588 512.001H401.522C409.654 512.001 417.464 508.561 422.949 502.563C428.428 496.573 431.154 488.505 430.43 480.424V480.424ZM125.733 364.354C124.662 366.089 122.978 367.304 121.075 367.755L96.7551 373.229C92.6562 374.197 88.5292 371.657 87.558 367.562C87.0879 365.579 87.419 363.532 88.4892 361.796C89.5605 360.061 91.2439 358.846 93.1473 358.395L117.468 352.921C118.058 352.781 118.649 352.714 119.231 352.714C122.69 352.714 125.833 355.082 126.664 358.588C127.134 360.57 126.804 362.619 125.733 364.354ZM317.323 358.597C318.152 355.099 321.281 352.734 324.782 352.734C325.381 352.734 325.991 352.803 326.602 352.949L350.756 358.384C352.742 358.855 354.426 360.07 355.497 361.805C356.567 363.54 356.897 365.587 356.428 367.571C355.456 371.668 351.327 374.209 347.149 373.218L322.993 367.783C321.008 367.312 319.324 366.097 318.254 364.362C317.184 362.627 316.853 360.578 317.323 358.597V358.597ZM275.533 353.52L265.02 390.85L235.299 369.422L265.51 343.846L275.533 353.52ZM188.002 307.908C198.233 315.823 210.896 320.174 223.824 320.173H224.055C236.863 320.173 249.391 315.919 259.545 308.178C258.731 315.28 258.611 322.441 259.158 329.566L223.13 360.067L188.295 330.576C188.96 323.03 188.864 315.435 188.002 307.908V307.908ZM235.668 388.185L229.525 403.852H216.524L210.548 388.215L223.129 379.144L235.668 388.185ZM318.377 178.643C321.671 181.979 323.453 186.396 323.397 191.082C323.305 198.551 318.426 204.904 311.724 207.27C311.667 197.201 312.035 185.643 312.791 174.845C314.856 175.72 316.752 176.998 318.377 178.643ZM136.16 207.242C129.457 204.877 124.578 198.523 124.486 191.054C124.428 186.368 126.211 181.951 129.506 178.615C131.131 176.97 133.026 175.692 135.091 174.817C135.848 185.606 136.216 197.156 136.16 207.242ZM127.975 87.2001C127.975 47.3909 170.577 15.0035 222.942 15.0035C275.308 15.0035 317.909 47.3909 317.909 87.2001C317.909 102.815 312.526 117.424 302.692 128.687H145.095C133.887 116.56 127.975 102.277 127.975 87.2001V87.2001ZM149.399 143.689H298.484V158.436H149.399V143.689ZM150.115 232.367C150.115 230.446 150.19 228.617 150.331 227.006C151.577 214.317 151.423 192.859 150.037 173.44L297.844 173.465C296.462 192.857 296.308 214.276 297.543 226.866C297.692 228.61 297.769 230.461 297.769 232.369C297.769 249.143 281.78 270.942 251.514 295.42C243.776 301.709 234.028 305.168 224.025 305.168C223.995 305.168 223.964 305.168 223.935 305.168C223.907 305.168 223.88 305.168 223.852 305.168C213.862 305.168 204.098 301.701 196.334 295.385C166.098 270.933 150.115 249.142 150.115 232.367V232.367ZM181.217 390.867L170.504 353.184L180.65 343.762L210.96 369.422L181.217 390.867ZM196.234 496.997L217.119 418.857H228.896L249.999 496.997H196.234ZM411.881 492.437C409.192 495.376 405.514 496.997 401.525 496.997H345.191V438.447C345.191 434.303 341.834 430.945 337.69 430.945C333.546 430.945 330.188 434.303 330.188 438.447V496.997H265.542L242.53 411.789L248.233 397.245L264.946 409.294C266.24 410.228 267.78 410.711 269.334 410.711C270.164 410.711 270.999 410.573 271.805 410.292C274.118 409.484 275.89 407.6 276.554 405.242L289.253 360.152L302.295 363.101C302.686 366.302 303.742 369.413 305.486 372.24C308.662 377.386 313.651 380.987 319.618 382.4L343.774 387.835C345.522 388.249 347.271 388.448 348.995 388.448C356.641 388.448 363.762 384.539 367.914 378.241C391.754 386.057 408.815 407.205 411.086 432.572L415.488 481.762C415.841 485.716 414.559 489.507 411.881 492.437V492.437Z"/>
<path d="M306.645 430.945H277.985C273.841 430.945 270.483 434.303 270.483 438.447C270.483 442.591 273.841 445.949 277.985 445.949H306.645C310.788 445.949 314.146 442.591 314.146 438.447C314.146 434.303 310.787 430.945 306.645 430.945Z"/>
<path d="M175.779 438.447C175.779 434.303 172.421 430.945 168.278 430.945H139.617C135.474 430.945 132.115 434.303 132.115 438.447C132.115 442.591 135.474 445.949 139.617 445.949H168.278C172.421 445.949 175.779 442.59 175.779 438.447Z"/>
</g>
<defs>
<clipPath id="clip0">
<rect x="-34" width="512" height="512" fill="white"/>
</clipPath>
</defs>
</svg>
